<svg width="111" height="24" viewBox="0 0 111 24" fill="none" xmlns="http://www.w3.org/2000/svg">
<path d="M16.5192 11.4364H11.237V0.872055H16.5192C19.4343 0.872055 21.8013 3.23906 21.8013 6.15421C21.8013 9.06936 19.4343 11.4364 16.5192 11.4364Z" fill="white"/>
<path d="M5.95488 11.4364H11.237V22.0007H5.95488C3.03973 22.0007 0.672729 19.6337 0.672729 16.7185C0.672729 13.8034 3.03973 11.4364 5.95488 11.4364Z" fill="white"/>
<path d="M32.3532 0.9468H39.9276C41.9458 0.9468 43.5653 1.22087 44.7613 1.78148C45.9572 2.34209 46.8293 3.12694 47.3525 4.13603C47.8882 5.14512 48.1498 6.34108 48.1498 7.71145C48.1498 9.08182 47.8758 10.3525 47.3401 11.4114C46.8044 12.4704 45.9323 13.2801 44.7364 13.8532C43.5404 14.4387 41.9458 14.7253 39.965 14.7253H36.838V21.9758H32.3657V0.9468H32.3532ZM43.8145 7.78619C43.8145 6.70236 43.5404 5.91751 42.9923 5.41919C42.4441 4.92087 41.4226 4.67172 39.9276 4.67172H36.838V11.0377H39.965C41.4724 11.0377 42.4939 10.7636 43.0296 10.203C43.5653 9.64242 43.8269 8.84512 43.8269 7.79865L43.8145 7.78619Z" fill="white"/>
<path d="M49.5825 0.9468H53.9428V21.9758H49.5825V0.9468Z" fill="white"/>
<path d="M55.5125 14.4387C55.5125 12.6697 55.8239 11.1747 56.4593 9.92894C57.0821 8.6956 57.9667 7.7488 59.1128 7.10099C60.2589 6.45318 61.5919 6.12927 63.1242 6.12927C65.5037 6.12927 67.2976 6.82692 68.5061 8.2222C69.7145 9.61749 70.3125 11.4862 70.3125 13.8158V15.2609H59.7606C59.935 17.9518 61.0438 19.2973 63.0869 19.2973C65.13 19.2973 64.6939 19.1229 65.1549 18.7616C65.6158 18.4003 65.9148 17.9145 66.0643 17.2916H70.163C69.864 18.936 69.1414 20.2192 67.9828 21.1037C66.8242 22.0007 65.2172 22.4491 63.1491 22.4491C61.0811 22.4491 58.8138 21.7515 57.4933 20.3562C56.1727 18.9609 55.5249 16.9926 55.5249 14.4387H55.5125ZM65.4539 10.1283C65.0303 9.53028 64.2454 9.23129 63.1118 9.23129C61.9781 9.23129 61.1933 9.54274 60.6949 10.1656C60.1966 10.7885 59.8976 11.6481 59.7855 12.7693H66.1764C66.1141 11.6108 65.8774 10.7262 65.4539 10.1283Z" fill="white"/>
<path d="M71.9444 6.60271H76.2175V8.54615C76.9774 7.62426 77.7747 6.98891 78.572 6.65254C79.3693 6.31618 80.2165 6.14177 81.0761 6.14177C82.7704 6.14177 84.0411 6.61517 84.9007 7.57443C85.7603 8.53369 86.1963 9.8916 86.1963 11.6855V22.0007H81.8111V12.5202C81.8111 11.536 81.6242 10.8384 81.2629 10.4148C80.9017 9.99126 80.3411 9.77948 79.5936 9.77948C78.8461 9.77948 78.734 9.85423 78.3104 10.0162C77.8869 10.1781 77.5256 10.4148 77.2017 10.7512C76.9027 11.0502 76.6784 11.3616 76.5289 11.698C76.3794 12.0344 76.2922 12.4579 76.2922 12.9936V22.0131H71.932V6.60271H71.9444Z" fill="white"/>
<path d="M88.3515 0.884514H92.7741V4.38519H88.3515V0.884514ZM88.3764 6.6027H92.7367V21.9758H88.3764V6.6027Z" fill="white"/>
<path d="M94.4435 14.3515C94.4435 11.7727 95.1411 9.76698 96.5364 8.30941C97.9317 6.85183 99.8502 6.12927 102.279 6.12927C104.709 6.12927 106.64 6.83937 107.985 8.24712C109.331 9.66732 110.003 11.6606 110.003 14.2269C110.003 16.7932 109.306 18.7865 107.923 20.2565C106.54 21.7266 104.622 22.4491 102.167 22.4491C99.7131 22.4491 97.8071 21.739 96.4616 20.3188C95.1162 18.8986 94.4435 16.9054 94.4435 14.3515ZM98.8909 14.2892C98.8909 15.7219 99.1525 16.8555 99.6882 17.6778C100.224 18.5 101.046 18.9111 102.192 18.9111C103.338 18.9111 104.198 18.5 104.746 17.6528C105.282 16.8182 105.556 15.6845 105.556 14.2518C105.556 12.8192 105.282 11.698 104.746 10.8757C104.21 10.0535 103.363 9.65486 102.192 9.65486C101.021 9.65486 100.224 10.066 99.6882 10.8757C99.1525 11.6855 98.8909 12.8192 98.8909 14.2767V14.2892Z" fill="white"/>
</svg>
