<svg width="64" height="64" viewBox="0 0 64 64" fill="none" xmlns="http://www.w3.org/2000/svg">
<g clip-path="url(#clip0_2273_1073)">
<path d="M49 0H15C6.71573 0 0 6.71573 0 15V49C0 57.2843 6.71573 64 15 64H49C57.2843 64 64 57.2843 64 49V15C64 6.71573 57.2843 0 49 0Z" fill="white"/>
<path d="M15.8777 46.0097H21.8176V31.5841L13.332 25.22V43.4641C13.332 44.8726 14.4733 46.0097 15.8777 46.0097Z" fill="#4285F4"/>
<path d="M42.1836 46.0097H48.1237C49.5322 46.0097 50.6693 44.8683 50.6693 43.4641V25.22L42.1836 31.5841" fill="#34A853"/>
<path d="M42.1836 20.5529V31.5842L50.6693 25.22V21.8257C50.6693 18.6776 47.0756 16.8829 44.5597 18.7709" fill="#FBBC04"/>
<path d="M21.8164 31.5842V20.553L31.9991 28.1899L42.1817 20.553V31.5842L31.9991 39.2212" fill="#EA4335"/>
<path d="M13.332 21.8257V25.22L21.8176 31.5842V20.5529L19.4417 18.7709C16.9214 16.8829 13.332 18.6776 13.332 21.8257Z" fill="#C5221F"/>
</g>
<defs>
<clipPath id="clip0_2273_1073">
<rect width="64" height="64" rx="12" fill="white"/>
</clipPath>
</defs>
</svg>
