<svg width="64" height="64" viewBox="0 0 64 64" fill="none" xmlns="http://www.w3.org/2000/svg">
<g clip-path="url(#clip0_2273_1061)">
<path d="M0 0H64V64H0" fill="white"/>
<path d="M12.5 16.875C12.5 13.9583 14.0417 12.5 17.125 12.5H42.5V21.75H21.75V42.5H12.5" fill="#4285F4"/>
<path d="M42.25 12.5V22H51.5V16.875C51.5 13.9583 50.0417 12.5 47.125 12.5" fill="#1967D2"/>
<path d="M12.5 42.25V47.125C12.5 50.0417 13.9583 51.5 16.875 51.5H22V42.25" fill="#188038"/>
<path d="M43.5 42.25H21.75V51.5H42.25" fill="#34A853"/>
<path d="M42.25 42.375V21.75H51.5V42.25" fill="#FBBC04"/>
<path d="M42.25 51.5V42.25H51.5" fill="#EA4335"/>
<path d="M25.5 28.625C25.6305 28.1238 25.9182 27.6656 26.3307 27.3023C26.7431 26.9391 27.2635 26.6854 27.8329 26.5702C28.4022 26.4549 28.9976 26.4828 29.5513 26.6505C30.105 26.8182 30.5949 27.1191 30.9651 27.519C31.3353 27.9188 31.5711 28.4015 31.6456 28.9123C31.7201 29.423 31.6303 29.9413 31.3866 30.4081C31.1428 30.875 30.7547 31.2716 30.2665 31.553C29.7783 31.8345 29.2096 31.9893 28.625 32M28.625 32H27.5M28.625 32C29.2081 32.0163 29.775 32.1759 30.2617 32.4607C30.7484 32.7456 31.1355 33.1442 31.379 33.6116C31.6226 34.079 31.7129 34.5965 31.6398 35.1055C31.5668 35.6145 31.3332 36.0946 30.9655 36.4917C30.5979 36.8888 30.1108 37.1869 29.5595 37.3522C29.0082 37.5176 28.4145 37.5437 27.8458 37.4275C27.2771 37.3113 26.756 37.0574 26.3414 36.6947C25.9268 36.332 25.6354 35.8748 25.5 35.375M33.75 28.875L37.125 26.5H37.625V38.5" stroke="#4285F4" stroke-width="1.875"/>
</g>
<defs>
<clipPath id="clip0_2273_1061">
<rect width="64" height="64" rx="12" fill="white"/>
</clipPath>
</defs>
</svg>
