<svg width="64" height="64" viewBox="0 0 64 64" fill="none" xmlns="http://www.w3.org/2000/svg">
<rect width="64" height="64" rx="12" fill="#7AB8A7"/>
<path d="M40.3452 23.0717C40.3452 25.1983 39.4468 27.0775 37.9746 28.5478C36.341 30.1813 33.9704 30.5902 33.9704 31.9798C33.9704 33.859 36.9956 33.287 39.8942 36.1873C41.8156 38.1068 43 40.6423 43 43.583C43 49.3837 38.3431 54 32.5 54C26.6569 54 22 49.3837 22 43.5867C22 40.6405 23.1844 38.1068 25.1058 36.1873C28.0063 33.287 31.0278 33.859 31.0278 31.9798C31.0278 30.5902 28.659 30.1832 27.0254 28.5478C25.555 27.0775 24.6548 25.1983 24.6548 22.9928C24.6548 18.7432 28.1291 15.3112 32.3772 15.3112C33.1949 15.3112 33.9301 15.434 34.5424 15.434C35.6462 15.434 36.2182 14.9427 36.2182 14.1672C36.2182 13.718 36.0128 13.146 36.0128 12.5337C36.0128 11.144 37.1991 10 38.6291 10C40.0592 10 41.2032 11.1843 41.2032 12.6143C41.2032 14.1268 40.017 14.8217 39.1186 15.148C38.3834 15.3937 37.8114 15.72 37.8114 16.4552C37.8114 17.8448 40.3452 19.1905 40.3452 23.0717ZM39.5275 43.5867C39.5275 39.5423 36.5445 36.2717 32.5 36.2717C28.4555 36.2717 25.4725 39.5423 25.4725 43.5867C25.4725 47.5907 28.4555 50.8998 32.5 50.8998C36.5445 50.8998 39.5275 47.587 39.5275 43.5867ZM37.1166 22.991C37.1166 20.417 35.0338 18.294 32.5 18.294C29.9662 18.294 27.8834 20.417 27.8834 22.991C27.8834 25.565 29.9662 27.6917 32.5 27.6917C35.0338 27.6917 37.1166 25.565 37.1166 22.991Z" fill="#CAECE3"/>
</svg>
