<svg width="64" height="64" viewBox="0 0 64 64" fill="none" xmlns="http://www.w3.org/2000/svg">
<g clip-path="url(#clip0_2273_1049)">
<mask id="mask0_2273_1049" style="mask-type:luminance" maskUnits="userSpaceOnUse" x="0" y="0" width="64" height="64">
<path d="M64 0H0V64H64V0Z" fill="white"/>
</mask>
<g mask="url(#mask0_2273_1049)">
<path d="M49 0H15C6.71572 0 0 6.71572 0 15V49C0 57.2843 6.71572 64 15 64H49C57.2843 64 64 57.2843 64 49V15C64 6.71572 57.2843 0 49 0Z" fill="#F4F2ED"/>
<mask id="mask1_2273_1049" style="mask-type:luminance" maskUnits="userSpaceOnUse" x="10" y="10" width="44" height="44">
<path d="M53.75 10H10V53.75H53.75V10Z" fill="white"/>
</mask>
<g mask="url(#mask1_2273_1049)">
<path d="M12.6325 11.8867L36.8405 10.0987C39.8142 9.84359 40.5783 10.0155 42.448 11.3748L50.1755 16.8187C51.45 17.7549 51.8745 18.01 51.8745 19.0293V48.8857C51.8745 50.757 51.195 51.8637 48.8162 52.0327L20.7043 53.7355C18.9193 53.8197 18.0693 53.5647 17.1343 52.3735L11.4438 44.9735C10.4231 43.6117 10 42.5922 10 41.4005V14.8617C10 13.3318 10.6795 12.056 12.6325 11.8867Z" fill="white"/>
<path fill-rule="evenodd" clip-rule="evenodd" d="M36.8405 10.0991L12.6325 11.8872C10.6795 12.056 10 13.3322 10 14.8617V41.4005C10 42.5917 10.4231 43.6112 11.4438 44.9735L17.1343 52.373C18.0693 53.5642 18.9193 53.8197 20.7043 53.735L48.8167 52.033C51.1937 51.8637 51.8747 50.757 51.8747 48.8862V19.0298C51.8747 18.0629 51.493 17.7842 50.3685 16.9591L42.448 11.3748C40.5785 10.0155 39.8142 9.84359 36.8405 10.0987V10.0991ZM21.34 18.5411C19.0444 18.6955 18.5238 18.7305 17.2201 17.6705L13.9056 15.0341C13.5687 14.6928 13.738 14.2672 14.5868 14.1823L37.8587 12.4817C39.813 12.3111 40.8308 12.9923 41.595 13.5873L45.5863 16.4792C45.7568 16.5653 46.1812 17.0742 45.6707 17.0742L21.6375 18.521L21.34 18.5411ZM18.6638 48.631V23.2853C18.6638 22.1785 19.0038 21.6679 20.0214 21.5822L47.625 19.966C48.5612 19.8816 48.9842 20.4766 48.9842 21.5817V46.7585C48.9842 47.8655 48.8137 48.8017 47.2855 48.8862L20.8706 50.4175C19.3424 50.5017 18.6642 49.993 18.6642 48.631H18.6638ZM44.7388 24.6442C44.9083 25.41 44.7388 26.1755 43.9733 26.263L42.7 26.5155V45.2287C41.5945 45.8237 40.5768 46.1635 39.7265 46.1635C38.367 46.1635 38.0275 45.7377 37.0095 44.463L28.684 31.3642V44.0372L31.3178 44.6337C31.3178 44.6337 31.3178 46.165 29.1928 46.165L23.3346 46.5047C23.164 46.1635 23.3345 45.3135 23.9282 45.1442L25.4583 44.7197V27.9635L23.335 27.7917C23.1644 27.026 23.5887 25.9205 24.7787 25.8347L31.0643 25.4117L39.7267 38.6797V26.9415L37.5187 26.6877C37.3482 25.7502 38.0275 25.069 38.8763 24.9859L44.7388 24.6442Z" fill="black"/>
</g>
</g>
</g>
<defs>
<clipPath id="clip0_2273_1049">
<rect width="64" height="64" rx="12" fill="white"/>
</clipPath>
</defs>
</svg>
