<svg width="64" height="64" viewBox="0 0 64 64" fill="none" xmlns="http://www.w3.org/2000/svg">
<g clip-path="url(#clip0_2273_1083)">
<path d="M64 0H0V64H64V0Z" fill="#005CB9"/>
<path d="M16.9598 22.7201C17.0398 22.5601 17.0398 22.4001 17.1198 22.2401C19.1998 15.6001 25.1998 11.1201 32.0798 11.1201C38.9598 11.1201 44.9598 15.6001 47.0398 22.1601C47.1198 22.3201 47.1198 22.4801 47.1998 22.6401C47.5198 23.6801 46.8798 24.8001 45.8398 25.1201C44.7998 25.4401 43.6798 24.8001 43.3598 23.7601C43.2798 23.6801 43.2798 23.5201 43.2798 23.4401C41.5998 18.4801 37.1198 15.2001 31.9998 15.2001C26.8798 15.2001 22.3998 18.5601 20.8798 23.4401C20.7998 23.6001 20.7998 23.6801 20.7998 23.7601C20.5598 24.6401 19.7598 25.2001 18.8798 25.2001C17.9998 25.2001 18.5598 25.2001 18.3198 25.1201C17.2798 24.8801 16.6398 23.7601 16.9598 22.7201Z" fill="#F38B00"/>
<path d="M47.1194 31.7599L42.0794 50.7999C41.9994 51.1199 41.6794 51.4399 41.2794 51.4399H37.1194C37.1194 51.4399 36.3994 51.3599 36.3194 50.9599C35.5994 48.3199 31.9194 34.9599 31.9194 34.9599C31.9194 34.9599 28.3994 48.3199 27.7594 50.9599C27.6794 51.2799 26.9594 51.5999 26.9594 51.5999H22.7994C22.3994 51.5999 22.0794 51.3599 21.9994 50.9599L16.9594 31.9199C16.7994 31.4399 17.1994 30.8799 17.7594 30.8799H20.4794C20.8794 30.8799 21.1994 31.1199 21.2794 31.5199C21.2794 31.5199 24.8794 46.6399 25.0394 46.7199L29.1194 31.5199C29.1994 31.1999 29.5994 30.8799 29.9194 30.8799H34.1594C34.5594 30.8799 34.8794 31.1199 35.0394 31.5199C35.0394 31.5199 39.0394 46.6399 39.1194 46.6399L42.7994 31.5199C42.8794 31.1199 43.1994 30.8799 43.5994 30.8799H46.3194C46.8794 30.8799 47.2794 31.3599 47.1194 31.9199" fill="white"/>
</g>
<defs>
<clipPath id="clip0_2273_1083">
<rect width="64" height="64" rx="12" fill="white"/>
</clipPath>
</defs>
</svg>
