<svg width="118" height="56" viewBox="0 0 118 56" fill="none" xmlns="http://www.w3.org/2000/svg">
<g clip-path="url(#clip0_2270_165)">
<g clip-path="url(#clip1_2270_165)">
<path d="M29.4187 29.2133V34.1502H27.2656V21.8149H32.7141V23.8797H29.4187V27.1485H32.47V29.2133H29.4187Z" fill="white"/>
<path d="M33.9102 30.5891V25.3599C33.9102 22.8311 35.2251 21.6479 37.3759 21.6479C39.7155 21.6479 40.86 22.7476 40.86 25.2253V26.7402H38.5204V25.3923C38.5204 24.121 38.2901 23.6384 37.369 23.6384C36.4801 23.6384 36.2176 24.2416 36.2176 25.4944V30.4174C36.2176 31.6887 36.4916 32.2571 37.3966 32.2571C38.2671 32.2571 38.548 31.6887 38.548 30.5032V28.914H40.8761V30.6494C40.8416 33.2477 39.5958 34.3312 37.3598 34.3312C35.0869 34.3381 33.9102 33.1851 33.9102 30.5891Z" fill="white"/>
<path d="M46.0156 34.1502V21.8149H49.2948C51.7012 21.8149 52.5556 22.7429 52.5556 24.5153V25.6173C52.5556 26.8214 52.1802 27.4919 51.1739 27.8004C52.2746 28.095 52.7352 28.7818 52.7352 29.9696V31.234C52.7352 33.1247 52.019 34.1409 49.7416 34.1409L46.0156 34.1502ZM48.1503 23.6222V26.9072H49.2096C50.0962 26.9072 50.4048 26.5639 50.4048 25.6521V24.6708C50.4048 23.947 50.0455 23.6222 49.2096 23.6222H48.1503ZM48.1503 28.7655V32.2223H49.281C50.186 32.2223 50.4946 31.9299 50.4946 31.0368V29.951C50.4946 29.1089 50.1353 28.7655 49.1958 28.7655H48.1503Z" fill="white"/>
<path d="M58.632 32.3267H56.0368L55.6937 34.1502H53.4922L56.2072 21.8149H58.4087L61.1928 34.1502H58.9913L58.632 32.3267ZM56.4167 30.3825H58.259L57.453 26.2716L57.3171 24.5501L57.1813 26.2716L56.4167 30.3825Z" fill="white"/>
<path d="M61.8947 31.1227V29.4709H64.1837V31.0948C64.1837 31.8674 64.4554 32.3499 65.3351 32.3499C66.1364 32.3499 66.4105 31.8511 66.4105 31.1621V30.5195C66.4105 29.4871 65.4709 29.0231 64.4646 28.4895C63.2856 27.8701 62.0213 27.13 62.0213 25.2207V24.7057C62.0213 22.8126 63.0806 21.6433 65.266 21.6433C67.4513 21.6433 68.46 22.743 68.46 24.534V25.8749H66.2907V24.6709C66.2907 23.8798 66.0006 23.5109 65.2499 23.5109C64.4992 23.5109 64.2251 23.9911 64.2251 24.7312V25.0745C64.2251 26.0211 65.1462 26.4526 66.1364 26.9676C67.3247 27.5778 68.6235 28.3341 68.6235 30.262V31.2085C68.6235 33.1689 67.4951 34.3381 65.3097 34.3381C62.7836 34.3381 61.8947 33.2199 61.8947 31.1227Z" fill="white"/>
<path d="M75.8277 34.1502H70.0039V21.8149H75.7241V23.8286H72.1893V26.8887H75.3003V28.914H72.1916V32.0668H75.83L75.8277 34.1502Z" fill="white"/>
<path d="M77.2109 34.1502V21.8149H79.4654V31.9299H82.7446V34.1502H77.2109Z" fill="white"/>
<path d="M87.4219 34.1502V32.0158H89.0453V25.2879H87.7374V23.6546C88.7276 23.5015 89.2388 22.9587 89.4967 21.8149H91.2215V32.0227H92.7736V34.1571L87.4219 34.1502Z" fill="white"/>
<path d="M93.8266 31.4822V29.8838C93.8059 29.4292 93.9218 28.979 94.1593 28.592C94.3968 28.2049 94.7448 27.8991 95.1576 27.7146C94.3908 27.3713 94.0062 26.666 94.0062 25.6267V24.4481C94.0062 22.8241 95.1576 21.6433 97.3015 21.6433C99.4454 21.6433 100.647 22.7777 100.647 24.4481V25.6081C100.647 26.6219 100.238 27.3272 99.4684 27.6961C100.288 28.058 100.783 28.798 100.783 29.8815V31.4799C100.783 33.1828 99.5721 34.3544 97.2831 34.3544C94.9941 34.3544 93.8266 33.2385 93.8266 31.4822ZM98.5611 31.1551V29.7121C98.5611 29.1089 98.1512 28.6101 97.366 28.6101H97.2462C97.0957 28.5989 96.9445 28.6198 96.8026 28.6715C96.6606 28.7232 96.5311 28.8044 96.4224 28.91C96.3138 29.0155 96.2284 29.1429 96.172 29.2839C96.1155 29.425 96.0892 29.5764 96.0948 29.7283V31.1737C96.0948 31.8442 96.5232 32.2733 97.3084 32.2733C98.0937 32.2733 98.5611 31.8604 98.5611 31.1551ZM98.4759 25.738V24.7056C98.4759 24.0096 98.1351 23.6036 97.3245 23.6036C96.514 23.6036 96.1731 24.0166 96.1731 24.7219V25.7543C96.1731 26.3226 96.4817 26.8214 97.2508 26.8214H97.3683C98.1466 26.8261 98.4713 26.3389 98.4713 25.738H98.4759Z" fill="white"/>
<path d="M102.038 31.1551V29.9511H104.359V31.053C104.359 31.8952 104.684 32.3429 105.554 32.3429C106.459 32.3429 106.768 31.7931 106.768 30.6053V27.8886C106.443 28.6101 105.812 29.1785 104.695 29.1785C102.955 29.1785 101.98 28.2505 101.98 26.2878V25.0327C101.98 22.8473 103.226 21.6433 105.465 21.6433C107.786 21.6433 108.999 22.8033 108.999 25.4619V30.5891C108.999 33.0993 107.804 34.3567 105.465 34.3567C103.148 34.3567 102.054 33.2037 102.038 31.1551ZM106.768 26.5291V25.3691C106.768 24.2092 106.427 23.6152 105.488 23.6152C104.649 23.6152 104.258 24.1465 104.258 25.0768V26.2113C104.258 26.9862 104.633 27.4339 105.488 27.4339C105.77 27.4456 106.048 27.3634 106.28 27.1999C106.511 27.0363 106.683 26.8006 106.768 26.5291Z" fill="white"/>
<path d="M110.199 31.2943V29.6425H112.454V31.1041C112.454 31.879 112.794 32.2409 113.649 32.2409C114.554 32.2409 114.879 31.8279 114.879 31.0182V29.7979C114.879 29.0231 114.485 28.696 113.598 28.696H112.744V26.9235H113.614C114.418 26.9235 114.766 26.5291 114.766 25.7891V24.7381C114.766 24.0143 114.476 23.6361 113.64 23.6361C112.804 23.6361 112.523 24.0421 112.523 24.7381V25.9932H110.303V24.585C110.303 22.7615 111.514 21.6433 113.665 21.6433C115.903 21.6433 117.029 22.7105 117.029 24.4272V25.6313C117.029 26.6822 116.672 27.4037 115.8 27.7657C116.705 28.0928 117.181 28.798 117.181 29.9673V31.3082C117.181 33.0807 116.087 34.3242 113.63 34.3242C111.24 34.3381 110.199 33.2547 110.199 31.2943Z" fill="white"/>
<path d="M22.9211 16.667L22.631 15.2263L22.426 15.3168L21.2953 15.8179C18.7415 16.95 16.3489 17.182 13.5648 17.182C10.5528 17.182 8.23615 16.7621 5.82051 15.79L4.54245 15.2634L4.23388 16.6183C4.02329 17.6168 3.8779 18.6281 3.79865 19.6458L3.7572 20.0634V20.0843C3.73417 20.3905 3.72266 20.7594 3.72266 21.1793C3.72266 23.3044 4.01972 26.724 4.4987 28.5475C5.80209 33.6723 8.80724 37.8854 12.9592 40.4072L13.5579 40.7737L14.1636 40.4141C17.4612 38.4561 20.1693 35.1223 21.7904 31.0229C23.5314 26.6219 23.9228 21.6572 22.9211 16.667ZM21.6223 30.9556C20.0104 35.0179 17.3345 38.3192 14.0714 40.2564L13.5602 40.5603L13.0513 40.2517C8.9408 37.7531 5.96558 33.5795 4.67371 28.5011C4.20394 26.7147 3.91379 23.3462 3.91379 21.1793C3.91379 20.771 3.9253 20.4044 3.94603 20.0982V20.082L3.98748 19.6621C4.06538 18.6483 4.20923 17.6409 4.4181 16.6461L4.67371 15.5116L5.75603 15.9501C8.197 16.9431 10.532 17.3653 13.5694 17.3653C16.3858 17.3653 18.7922 17.1333 21.3736 15.9733L22.502 15.4745L22.7484 16.6925C23.7386 21.6572 23.3494 26.5941 21.6223 30.9556Z" fill="white"/>
<path d="M19.1323 34.656C20.2777 32.9314 21.1639 31.0458 21.7621 29.0602C22.4241 26.8522 22.7684 24.5599 22.7845 22.2534C22.7968 20.2247 22.5805 18.2011 22.1397 16.2215V16.1891L21.769 16.9036C23.7978 26.9954 19.6251 35.7997 13.5664 39.3933V39.971C16.3873 38.3772 18.248 36.0131 19.1323 34.656Z" fill="white"/>
<path d="M21.3693 15.9848C18.7879 17.1309 16.3814 17.3768 13.5651 17.3768C10.5277 17.3652 8.19267 16.943 5.7563 15.95L4.67399 15.5116L4.41147 16.6553C4.2026 17.6501 4.05875 18.6575 3.98084 19.6713L3.93939 20.0912V20.0981C3.91406 20.4044 3.91406 20.7709 3.91406 21.1792C3.91406 23.3554 4.21343 26.7147 4.6832 28.501C5.97507 33.5794 8.95029 37.7531 13.0608 40.2517L13.5697 40.5602V39.9709L13.473 39.9176C11.2044 38.5635 9.27367 36.7041 7.82882 34.4819C6.75682 32.8413 5.92902 31.0514 5.37174 29.1692C4.71313 27.0395 4.40226 23.6454 4.40226 21.3648C4.41128 19.6266 4.61992 17.8952 5.02401 16.2052C6.27195 16.7395 7.5673 17.1536 8.89272 17.4418C10.4306 17.7472 11.9954 17.8933 13.5628 17.8779C15.1637 17.9023 16.7632 17.7702 18.3388 17.4835C19.6475 17.2009 20.9199 16.7689 22.1315 16.196L22.4977 15.4861L21.3693 15.9848Z" fill="white"/>
<path d="M22.1381 16.2284C22.5789 18.208 22.7952 20.2316 22.7829 22.2603C22.7661 24.5645 22.4218 26.8544 21.7605 29.0602C21.1623 31.0457 20.2761 32.9314 19.1307 34.6559C18.2464 36.0131 16.3857 38.3678 13.5625 39.9709V40.5602L14.0737 40.2563C17.3345 38.3191 20.0149 35.0178 21.6223 30.9556C23.3494 26.5871 23.7386 21.6572 22.7438 16.704L22.4974 15.4861L22.1312 16.196L22.1381 16.2284Z" fill="white"/>
<path d="M18.3428 17.4743C16.7672 17.7609 15.1677 17.893 13.5668 17.8687C11.9994 17.8841 10.4346 17.738 8.89671 17.4326C7.57111 17.145 6.27569 16.731 5.02801 16.196C4.62391 17.886 4.41527 19.6173 4.40625 21.3556C4.40625 23.6361 4.71713 27.0302 5.37573 29.16C5.93146 31.0453 6.75851 32.8383 7.83052 34.482C9.27613 36.7064 11.2085 38.5675 13.4793 39.9223L13.576 39.9756V39.398C9.85698 37.1406 6.92782 33.322 5.63825 28.2482C5.11782 26.2739 4.79542 22.0493 4.93129 20.1701C5.01413 19.0647 5.16798 17.9658 5.39185 16.8804C8.17133 18.0102 10.6883 18.3675 13.576 18.3675C16.4637 18.3675 19.0336 18.1193 21.7786 16.9036L22.1424 16.196C20.9287 16.7674 19.6538 17.1963 18.3428 17.4743Z" fill="white"/>
<path d="M12.0247 20.0843H16.6165L17.1162 19.5832H11.5273V32.6052L12.0247 32.1017V20.0843Z" fill="white"/>
<path d="M14.7379 36.447H14.7172C13.0873 35.5084 11.6594 34.252 10.5169 32.7513C9.33786 31.1876 8.7161 29.5915 8.7161 28.1392C8.7161 27.2437 8.94638 26.5616 9.39083 26.1162C10.0517 25.455 11.0166 25.4643 11.4795 25.4689H11.5278L12.0275 24.9701H11.4219C10.6021 24.9701 9.73164 25.0861 9.04541 25.7195C8.54339 26.1835 8.20949 27.0326 8.2187 28.1299C8.23482 29.675 8.88881 31.3779 10.0609 32.9462C11.2066 34.4352 12.6053 35.7077 14.1922 36.7045L14.2682 36.7486L14.7379 36.447Z" fill="white"/>
<path d="M14.2695 36.7509L14.7393 37.6325V36.447L14.2695 36.7509Z" fill="white"/>
<path d="M11.5278 24.469C10.8807 24.469 9.54281 24.469 8.64011 25.3808C8.03218 25.9932 7.71899 26.9143 7.71899 28.123C7.71899 29.7609 8.39602 31.5264 9.67407 33.2269C11.0448 34.9926 12.7417 36.4744 14.6712 37.5907L14.7356 37.6302L14.2751 36.7463L14.1991 36.7022C12.6108 35.7065 11.2105 34.4348 10.0632 32.9462C8.88882 31.3779 8.23482 29.675 8.221 28.1299C8.221 27.0326 8.5457 26.1788 9.04771 25.7195C9.73164 25.0861 10.5929 24.9701 11.4219 24.9701H12.0275L11.5278 24.469Z" fill="white"/>
<path d="M12.0271 24.9724L16.483 24.9701L16.9827 24.469H11.5273" fill="white"/>
<path d="M12.0271 24.9701C12.0271 28.2992 12.0271 32.1016 12.0271 32.1016L11.5273 32.6028H12.5245C12.5245 32.6028 12.5245 25.557 12.5245 25.4712H16.9827V24.469L16.4853 24.9701H12.0271Z" fill="white"/>
<path d="M12.5249 24.469V20.5854H17.1167V19.5832L16.617 20.0843H12.0275V24.9701L12.5249 24.469Z" fill="white"/>
<path d="M17.517 22.78C17.517 22.78 16.7847 22.78 17.593 22.78C17.816 22.7869 18.0355 22.8381 18.2388 22.9306C18.4421 23.0232 18.6253 23.1552 18.7779 23.3193C18.9304 23.4833 19.0493 23.6761 19.1278 23.8865C19.2062 24.0969 19.2426 24.3209 19.2349 24.5455C19.2349 25.6289 18.5095 26.7077 17.646 27.4084C16.9321 27.986 15.7462 28.5498 15.1544 28.6565L15.6587 29.1808C16.0617 28.9766 17.0058 28.4686 17.6137 28.0881L18.422 27.3596C19.3961 26.3992 19.7484 25.4016 19.7484 24.5757C19.7516 24.2502 19.6922 23.9272 19.5734 23.6245C19.4153 23.221 19.1388 22.8756 18.7809 22.6344C18.423 22.3931 18.0006 22.2675 17.57 22.2743H14.6523L15.1567 22.7754L17.517 22.78Z" fill="white"/>
<path d="M15.1586 24.9701L15.1562 34.7255L15.6583 33.8462V24.9701H15.1586Z" fill="white"/>
<path d="M15.656 24.4691V23.2766L15.1562 22.7801V24.9702L15.656 24.4691Z" fill="white"/>
<path d="M19.1935 30.0369C19.1935 30.9139 18.8642 31.8558 17.7957 32.923C17.009 33.6528 16.1188 34.2603 15.1544 34.7256L14.6523 35.6072L14.7122 35.577C18.5533 33.7442 19.5481 31.7769 19.6955 30.4499C19.7111 30.319 19.7188 30.1873 19.7185 30.0555C19.7153 29.5373 19.5972 29.0263 19.3729 28.5599C19.1486 28.0935 18.8237 27.6834 18.422 27.3597L17.6322 27.4084C17.6322 27.4084 19.1935 28.4176 19.1935 30.0369Z" fill="white"/>
<path d="M18.422 27.3596C19.3961 26.3992 19.7484 25.4016 19.7484 24.5757C19.7516 24.2502 19.6922 23.9272 19.5734 23.6245C19.4153 23.221 19.1388 22.8756 18.7809 22.6344C18.423 22.3931 18.0006 22.2675 17.57 22.2743H14.6523L15.1567 22.7754H17.517C17.517 22.7754 16.7847 22.7754 17.593 22.7754C17.816 22.7823 18.0355 22.8335 18.2388 22.926C18.4421 23.0185 18.6253 23.1506 18.7779 23.3146C18.9304 23.4787 19.0493 23.6714 19.1278 23.8818C19.2062 24.0923 19.2426 24.3162 19.2349 24.5409C19.2349 25.6243 18.5095 26.7031 17.646 27.4037" fill="white"/>
<path d="M17.6341 27.4223C16.9202 27.9954 15.7458 28.5522 15.1562 28.6589L15.6606 29.1809C16.0636 28.9767 17.0077 28.4686 17.6156 28.0882L17.6341 27.4223Z" fill="white"/>
<path d="M19.1935 30.0369C19.1935 30.9139 18.8642 31.8558 17.7957 32.923C17.009 33.6528 16.1188 34.2603 15.1544 34.7256L14.6523 35.6072L14.7122 35.577C18.5533 33.7442 19.5481 31.7769 19.6955 30.4499C19.7111 30.319 19.7188 30.1873 19.7185 30.0555C19.7153 29.5373 19.5972 29.0263 19.3729 28.5599C19.1486 28.0935 18.8237 27.6834 18.422 27.3597L17.6322 27.4084C17.6322 27.4084 19.1935 28.4176 19.1935 30.0369Z" fill="white"/>
<path d="M17.7953 32.923C18.8638 31.8558 19.1931 30.9139 19.1931 30.0369C19.1931 28.413 17.6318 27.4084 17.6318 27.4084L17.6064 28.0882C18.318 28.6798 18.6772 29.3549 18.6772 30.0926C18.6818 30.1699 18.6818 30.2473 18.6772 30.3246C18.5437 31.5612 17.3923 32.9044 15.6583 33.8463L15.1562 34.7256C16.1199 34.2601 17.0093 33.6526 17.7953 32.923Z" fill="white"/>
<path d="M19.2368 24.5479C19.2445 24.3233 19.2081 24.0993 19.1297 23.8889C19.0512 23.6785 18.9323 23.4857 18.7798 23.3217C18.6272 23.1577 18.444 23.0256 18.2407 22.9331C18.0374 22.8405 17.8179 22.7893 17.5949 22.7824C16.7866 22.7824 17.5189 22.7824 17.5189 22.7824H15.1586L15.6606 23.2766H17.4567C17.748 23.2631 18.0341 23.3569 18.2617 23.5405C18.4893 23.7241 18.6427 23.9849 18.6934 24.2742C18.7147 24.385 18.7255 24.4977 18.7256 24.6106C18.7256 25.6615 17.8045 27.0117 15.6583 27.9444L15.1562 28.6589C15.7481 28.5522 16.934 27.9884 17.6479 27.4108C18.5114 26.7101 19.2368 25.6314 19.2368 24.5479Z" fill="white"/>
<path d="M14.6523 25.4735V35.6071L15.1544 34.7255V24.9701L14.6523 25.4735Z" fill="white"/>
<path d="M15.1567 24.9701V22.78L14.6523 22.2789V24.9701H15.1567Z" fill="white"/>
<path d="M4.40686 21.7221C4.24193 21.7227 4.07724 21.7351 3.91406 21.7593C3.96012 23.9168 4.24567 26.8632 4.67629 28.5057C4.69471 28.573 4.71313 28.6379 4.72925 28.7052C4.89444 28.691 5.05838 28.6646 5.21975 28.6263C4.69701 26.6057 4.4345 23.7892 4.40686 21.7221Z" fill="white"/>
<path d="M5.22004 28.6218C5.38247 28.5827 5.5418 28.5315 5.69672 28.4687C5.6783 28.3944 5.65757 28.3225 5.63915 28.2483C5.23616 26.7217 4.94831 23.8403 4.90686 21.7524C4.74351 21.7305 4.57883 21.7205 4.41406 21.7222C4.43479 23.7893 4.69731 26.6057 5.22004 28.6218Z" fill="white"/>
</g>
</g>
<defs>
<clipPath id="clip0_2270_165">
<rect width="117.185" height="56" fill="white"/>
</clipPath>
<clipPath id="clip1_2270_165">
<rect width="117.185" height="25.5474" fill="white" transform="translate(0 15.2263)"/>
</clipPath>
</defs>
</svg>
