<svg width="107" height="56" viewBox="0 0 107 56" fill="none" xmlns="http://www.w3.org/2000/svg">
<g clip-path="url(#clip0_2270_283)">
<mask id="mask0_2270_283" style="mask-type:luminance" maskUnits="userSpaceOnUse" x="0" y="11" width="106" height="34">
<path d="M105.276 11.3386H0V44.6614H105.276V11.3386Z" fill="white"/>
</mask>
<g mask="url(#mask0_2270_283)">
<path d="M28.5803 38.3394C27.8061 42.6497 23.8327 43.0938 20.233 43.0938H8.27221C4.60452 43.0938 1.64319 40.0677 1.64319 36.3196V22.5838C1.64319 21.3831 1.26963 14.3035 6.20064 14.3035C6.56061 14.3035 6.88663 14.4076 7.14473 14.5395C7.43678 14.6852 7.69488 14.8934 7.91902 15.1225L16.769 24.1733L27.8129 35.3965C27.9011 35.4798 28.1864 35.8755 28.2476 35.9795C28.4513 36.3127 28.818 37.0623 28.5871 38.3394H28.5803Z" fill="white"/>
<path d="M105.262 38.9568C105.242 38.8805 105.215 38.8042 105.174 38.7347C104.903 38.6931 104.686 38.6445 104.516 38.6098C104.414 38.582 104.299 38.5474 104.169 38.5057C104.067 38.471 103.966 38.4362 103.849 38.3946C103.579 38.2906 103.381 38.1378 103.232 37.9643C103.089 37.7769 103.014 37.5479 103.008 37.2841L102.872 29.5382C102.865 28.157 102.614 27.1506 102.138 26.505C101.656 25.8457 100.855 25.5195 99.7543 25.5195C98.8578 25.5195 97.9817 25.7763 97.1258 26.2899C96.2632 26.7966 95.3395 27.4698 94.3682 28.3305V16.6214C94.2868 16.4548 94.1169 16.3229 93.852 16.198C92.4054 16.8504 90.7277 17.2738 88.8531 17.4473C88.8055 17.5862 88.7852 17.6972 88.7852 17.7944C88.7852 17.9193 88.8055 18.0234 88.8531 18.1692C90.1911 18.2455 91.1352 18.4537 91.699 18.7938C91.699 19.4255 91.699 21.1468 91.7194 23.9231C91.7194 26.7063 91.7398 28.8996 91.7398 30.5099C91.7398 34.0081 91.7126 36.2568 91.6786 37.2633C91.6718 37.5271 91.5767 37.756 91.4205 37.9435C91.2643 38.124 91.0334 38.2697 90.7141 38.3739C90.5443 38.4294 90.395 38.4779 90.2591 38.5127C90.1504 38.5404 90.0417 38.5751 89.9534 38.589C89.7632 38.6237 89.5255 38.6723 89.2335 38.714C89.1724 38.818 89.1316 38.943 89.1316 39.0818C89.1316 39.2067 89.1656 39.3247 89.2267 39.4288C89.6478 39.408 90.0689 39.3942 90.4764 39.3802C91.3187 39.3525 92.1269 39.3455 92.9283 39.3455C93.7298 39.3455 94.5923 39.3525 95.4549 39.3872C95.8693 39.3942 96.2836 39.4149 96.7047 39.4357C96.7659 39.3317 96.7998 39.2067 96.7998 39.0818C96.7998 38.9568 96.7658 38.825 96.6979 38.7208C96.4806 38.6931 96.304 38.6653 96.1817 38.6307C96.0595 38.6098 95.8897 38.5612 95.6791 38.5057C95.6588 38.5057 95.6384 38.4919 95.618 38.4849C95.3939 38.4085 95.2037 38.3183 95.061 38.2281C94.9252 38.117 94.8029 37.999 94.6875 37.8325C94.572 37.6589 94.5109 37.4646 94.4973 37.2563C94.4566 36.1458 94.409 33.4875 94.375 29.2467C96.1681 27.9209 97.5741 27.2547 98.5793 27.2547C99.5846 27.2547 100.182 28.1778 100.182 30.0102L100.148 37.2494C100.148 37.5132 100.087 37.7422 99.9785 37.9296C99.863 38.1101 99.6864 38.2558 99.4758 38.3599C99.3943 38.3946 99.3197 38.4224 99.2517 38.4571C99.1159 38.5127 99.0004 38.5543 98.885 38.582C98.7219 38.6167 98.5182 38.6653 98.2872 38.707C98.2261 38.8111 98.1854 38.936 98.1854 39.0748C98.1854 39.1998 98.2193 39.3247 98.2804 39.4288C98.7083 39.408 99.1226 39.3872 99.5302 39.3733C100.311 39.3455 101.052 39.3386 101.751 39.3386C102.451 39.3386 103.164 39.3455 103.945 39.3733C104.346 39.3872 104.76 39.401 105.194 39.4288C105.256 39.3247 105.29 39.1998 105.29 39.0748C105.29 39.0263 105.29 38.9776 105.276 38.9291L105.262 38.9568Z" fill="white"/>
<path d="M86.9288 34.5706C86.6095 35.1189 86.365 35.5492 86.2021 35.8338C86.0254 36.1115 85.7945 36.4446 85.4957 36.8125C85.1968 37.1873 84.8979 37.4649 84.6195 37.6245C84.3478 37.805 83.9946 37.9508 83.5803 38.0826C83.1592 38.2214 82.6838 38.2769 82.1607 38.2769H78.8803L86.5348 26.436C86.5348 26.2486 86.4466 26.0542 86.2767 25.8738C84.8233 25.9501 83.2 25.9848 81.4408 25.9848C79.8311 25.9848 78.3097 25.9431 76.8901 25.8738L75.8442 29.6842C75.8986 29.7397 76.0004 29.7953 76.1838 29.8647C76.3604 29.941 76.4826 29.9758 76.537 29.9758C77.5489 27.8727 79.179 26.8177 81.4137 26.8177H83.3697L75.6133 38.8461C75.6879 39.1515 75.817 39.3597 76.0004 39.4708C77.7188 39.4083 79.4915 39.3805 81.3186 39.3805C83.0505 39.3805 84.7757 39.4014 86.5008 39.4708L87.4585 34.6956C87.282 34.6191 87.119 34.5844 86.9356 34.5844L86.9288 34.5706Z" fill="white"/>
<path d="M73.9312 39.0957C73.9312 39.2068 73.9109 39.3039 73.8634 39.4011C73.8566 39.4219 73.843 39.4358 73.8362 39.4497C73.4083 39.4289 72.994 39.4149 72.5864 39.4011C71.8054 39.3734 71.0718 39.3664 70.379 39.3664C69.761 39.3664 69.0886 39.3734 68.3414 39.4011C67.9407 39.4081 67.5264 39.4289 67.0917 39.4497C67.0849 39.4358 67.0713 39.4219 67.0713 39.4011C67.0238 39.3109 66.9966 39.2068 66.9966 39.0957C66.9966 38.9569 67.0374 38.832 67.0985 38.7279C67.3226 38.6862 67.4993 38.6376 67.6487 38.6029C67.7709 38.5751 67.9 38.5196 68.0358 38.4641C68.0901 38.4363 68.1445 38.4086 68.1988 38.3878C68.389 38.2836 68.5384 38.131 68.6335 37.9574C68.7422 37.77 68.7897 37.541 68.7897 37.2772L68.8169 30.038C68.8169 28.2056 68.2803 27.2824 67.2276 27.2824C66.691 27.2824 66.1069 27.456 65.4956 27.803C64.8571 28.1431 64.1168 28.6776 63.2474 29.3578V29.5383L63.3629 37.2842C63.3696 37.5479 63.4512 37.7769 63.5871 37.9644C63.7365 38.1448 63.9402 38.2906 64.2051 38.3946C64.3137 38.4363 64.4089 38.4711 64.504 38.4988C64.6398 38.5474 64.762 38.5891 64.8639 38.6099C65.0269 38.6446 65.2306 38.6932 65.482 38.7279C65.5431 38.832 65.5839 38.9569 65.5839 39.0957C65.5839 39.2068 65.5635 39.3039 65.5159 39.4011C65.5091 39.4219 65.4956 39.4358 65.4888 39.4497C65.0609 39.4289 64.6466 39.4081 64.2391 39.4011C63.4715 39.3734 62.7448 39.3664 62.0724 39.3664C61.4611 39.3664 60.7683 39.3734 60.0212 39.4011C59.6273 39.4081 59.213 39.4289 58.7783 39.4497C58.7308 39.3872 58.7036 39.3109 58.69 39.2345C58.6696 39.0957 58.6832 38.9708 58.724 38.8528C58.7443 38.8112 58.7579 38.7695 58.785 38.7279C59.0091 38.6862 59.1926 38.6376 59.3488 38.6029C59.4575 38.5751 59.5865 38.5266 59.7155 38.4641C59.7699 38.4363 59.831 38.4086 59.8922 38.3808C60.0959 38.2767 60.2385 38.124 60.3405 37.9505C60.4355 37.7631 60.4898 37.5341 60.4898 37.2703L60.5102 30.0311C60.5102 28.1987 59.9872 27.2756 58.9141 27.2756C58.3911 27.2756 57.8138 27.4491 57.2229 27.7822C56.6184 28.1223 55.8713 28.629 54.9747 29.3092C54.9747 32.2938 55.0155 34.9451 55.0902 37.2703C55.097 37.5341 55.1785 37.7631 55.3076 37.9505C55.4298 38.131 55.6199 38.2767 55.8577 38.3808C56.0954 38.4779 56.3127 38.5544 56.4826 38.6029C56.6728 38.6446 56.8969 38.6932 57.1482 38.7347C57.2093 38.8528 57.2364 38.9847 57.2364 39.1165C57.2364 39.2138 57.2093 39.3248 57.1482 39.4497C55.8441 39.3872 54.6284 39.3594 53.5076 39.3594C52.6994 39.3594 51.8844 39.3664 51.0421 39.4011C50.6278 39.4081 50.2135 39.4289 49.7924 39.4427C49.7313 39.3386 49.6973 39.2206 49.6973 39.0957C49.6973 38.9569 49.7313 38.8389 49.7992 38.7279C50.098 38.6862 50.3425 38.6376 50.5327 38.6029C50.621 38.5821 50.723 38.5613 50.8316 38.5266C50.9743 38.4919 51.1305 38.4433 51.3138 38.3878C51.6195 38.2836 51.8504 38.131 52.0066 37.9574C52.1628 37.77 52.2443 37.541 52.2579 37.2772C52.2987 36.2639 52.3259 35.0561 52.3259 33.6194C52.3259 33.1405 52.3259 32.3284 52.3055 31.1832C52.3055 30.0311 52.2987 29.0316 52.2987 28.1639C51.9183 27.9349 51.3682 27.7545 50.6482 27.6503C50.3018 27.5948 49.9215 27.5602 49.4936 27.5462C49.4324 27.4421 49.3984 27.3172 49.3984 27.1853C49.3984 27.0535 49.4324 26.9285 49.5004 26.8244C49.8807 26.7827 50.2475 26.7342 50.6007 26.6717C52.0406 26.4426 53.331 26.0748 54.4653 25.5681C54.7098 25.6722 54.8797 25.811 54.9815 25.9637V28.3792C55.4366 27.9418 55.8305 27.5879 56.1498 27.3172C56.4622 27.0465 56.8629 26.748 57.3248 26.4426C57.7731 26.1303 58.2349 25.9012 58.6968 25.7347C59.1518 25.5889 59.6205 25.5056 60.1163 25.5056C61.0875 25.5056 61.8007 25.7347 62.2829 26.2136C62.7584 26.6925 63.0573 27.4421 63.1727 28.4347C63.6753 27.9626 64.0828 27.6087 64.3817 27.3519C64.6873 27.0951 65.0813 26.8035 65.5635 26.4634C66.0457 26.1373 66.528 25.8943 66.9831 25.7347C67.4517 25.5889 67.9136 25.5056 68.4094 25.5056C69.5233 25.5056 70.3179 25.8319 70.8001 26.4912C71.2824 27.1368 71.5201 28.1431 71.5405 29.5243L71.6967 37.2703C71.6967 37.5341 71.7714 37.7631 71.9208 37.9505C72.0567 38.131 72.2605 38.2767 72.5389 38.3808C72.6476 38.4224 72.7495 38.4571 72.8445 38.4919C72.9804 38.5336 73.1026 38.5751 73.2113 38.6029C73.3743 38.6376 73.5849 38.6862 73.8362 38.7279C73.8973 38.832 73.938 38.9569 73.938 39.0957H73.9312Z" fill="white"/>
<path d="M47.9054 34.2721C47.79 33.8972 47.6473 33.5711 47.464 33.3003C47.2806 33.0367 46.9953 32.7798 46.6082 32.5091C46.2211 32.2592 45.8407 32.0511 45.4536 31.8636C45.08 31.6763 44.557 31.4472 43.8914 31.1834C42.4719 30.5727 41.4802 30.0938 40.9505 29.6982C40.4207 29.3094 40.1558 28.7889 40.1558 28.1017C40.1558 27.5604 40.3663 27.1578 40.8078 26.8871C41.2357 26.6303 41.7519 26.4915 42.3225 26.4915C43.0559 26.4915 43.7148 26.7344 44.2921 27.2063C44.8695 27.6853 45.5759 28.421 46.3841 29.4413C46.6558 29.4413 46.8527 29.3789 46.9614 29.24C46.5878 28.2128 46.2821 26.9774 46.0444 25.5128H45.6573C45.6573 25.5128 45.4943 25.5753 45.2702 25.6516C45.0325 25.7349 44.8083 25.8113 44.591 25.8599C44.557 25.8459 44.4008 25.7974 44.0952 25.7211C43.7963 25.6447 43.5314 25.5961 43.3208 25.5683C43.1035 25.5406 42.8726 25.5198 42.5874 25.5198C41.9014 25.5198 41.2968 25.61 40.7603 25.7766C40.2169 25.9501 39.789 26.1652 39.4698 26.4151C39.1506 26.6789 38.8857 26.9774 38.6684 27.3243C38.4578 27.6714 38.3151 28.0045 38.2405 28.3238C38.1657 28.6431 38.125 28.9623 38.125 29.2816C38.125 29.7397 38.1997 30.1423 38.3695 30.524C38.5257 30.8988 38.7294 31.2182 38.9672 31.4888C39.2253 31.7665 39.5581 32.0164 39.9656 32.28C40.3799 32.53 40.7738 32.7451 41.1542 32.9186C41.5413 33.0922 42.01 33.2795 42.567 33.4808C43.4567 33.8209 44.1359 34.1541 44.6182 34.4942C45.1004 34.8343 45.406 35.1536 45.5419 35.4589C45.6845 35.7643 45.7524 36.1391 45.7524 36.5695C45.7524 37.1456 45.5147 37.6661 45.0189 38.1242C44.5298 38.5823 43.8642 38.8114 42.9949 38.8114C42.4447 38.8114 41.9488 38.7142 41.5142 38.5198C41.0931 38.3117 40.7196 38.034 40.4207 37.6315C40.115 37.2427 39.8773 36.8402 39.6871 36.4237C39.6192 36.2849 39.5513 36.1323 39.4834 35.9656C39.3748 35.681 39.266 35.3687 39.1573 35.0217C39.0623 34.9662 38.9536 34.9453 38.8449 34.9453C38.6888 34.9453 38.5461 35.0008 38.4306 35.0841C38.4306 35.4451 38.4239 35.8199 38.4035 36.2224C38.3831 36.632 38.3627 37.0692 38.3219 37.5343C38.2472 38.4851 38.1793 39.0404 38.1318 39.2C38.1861 39.3042 38.2744 39.3875 38.4035 39.4708C39.1506 39.1723 39.7211 39.0335 40.1014 39.0335C40.4614 39.214 40.7467 39.3458 40.9641 39.436C41.1746 39.5333 41.4802 39.6165 41.8606 39.6998C42.2477 39.79 42.6892 39.8177 43.1782 39.8177C44.5298 39.8177 45.6913 39.3875 46.6558 38.5198C47.6135 37.6453 48.1025 36.6736 48.1025 35.5977C48.1025 35.105 48.0413 34.6677 47.9122 34.286L47.9054 34.2721Z" fill="white"/>
</g>
</g>
<defs>
<clipPath id="clip0_2270_283">
<rect width="106.077" height="56" fill="white"/>
</clipPath>
</defs>
</svg>
