<svg width="132" height="56" viewBox="0 0 132 56" fill="none" xmlns="http://www.w3.org/2000/svg">
<g clip-path="url(#clip0_2270_203)">
<g clip-path="url(#clip1_2270_203)">
<path d="M27.1114 23.7344L28.1583 20.7107C28.2305 20.4767 28.0681 20.2247 27.8154 20.2247H0.342407C0.0355472 20.2247 -0.126908 20.6207 0.10775 20.8186L3.44711 23.8244C3.60956 23.9684 3.82617 24.0404 4.04277 24.0404H17.4183L13.5735 34.9654C13.5013 35.1814 13.6637 35.4153 13.8984 35.4153H18.2847C18.4832 35.4153 18.6637 35.2894 18.7179 35.1094L22.5988 24.0404H26.6601C26.8587 24.0404 27.0392 23.9144 27.1114 23.7344ZM57.7071 26.0202C51.6241 26.0202 47.9598 28.6659 46.1909 33.8855C46.0465 34.2994 45.9382 34.6954 45.866 35.0914C45.8299 35.2534 45.9562 35.4153 46.1367 35.4153H50.6494C50.8299 35.4153 50.9562 35.2714 50.9562 35.1094C50.9562 34.6594 51.0465 34.1735 51.227 33.6515C52.0032 31.3477 53.9346 30.0158 56.5158 30.0158C57.8335 30.0158 58.8263 30.5018 59.2956 31.4017C59.6747 32.0856 59.6927 32.9856 59.3858 33.8855C59.2414 34.2994 59.0609 34.6954 58.8443 35.0374C58.7541 35.1994 58.8624 35.3973 59.0429 35.3973H63.3209C63.4833 35.3973 63.6458 35.3074 63.736 35.1634C64.0068 34.6594 64.2234 34.1555 64.4039 33.6335C64.9996 31.9417 64.7469 30.3398 64.0248 29.0259C63.014 27.1181 60.6313 26.0202 57.7071 26.0202ZM50.0537 24.0404H67.3461C67.5447 24.0404 67.7252 23.9144 67.7794 23.7344L68.8443 20.6747C68.9165 20.4587 68.7541 20.2247 68.5194 20.2247H51.227C51.0284 20.2247 50.8479 20.3507 50.7938 20.5307L49.7288 23.5904C49.6566 23.8064 49.819 24.0404 50.0537 24.0404ZM47.5447 20.2247H43.1945C42.9959 20.2247 42.8154 20.3507 42.7613 20.5307L40.9201 25.8222H34.1511L35.9562 20.6747C36.0284 20.4587 35.8659 20.2247 35.6313 20.2247H31.2811C31.0825 20.2247 30.902 20.3507 30.8479 20.5307L25.8118 34.9654C25.7396 35.1814 25.902 35.4153 26.1367 35.4153H30.4869C30.6854 35.4153 30.8659 35.2894 30.9201 35.1094L32.8334 29.6919H39.6024L37.7432 34.9654C37.671 35.1814 37.8335 35.4153 38.0681 35.4153H42.4183C42.6169 35.4153 42.7974 35.2894 42.8515 35.1094L47.8876 20.6747C47.9418 20.4587 47.7793 20.2247 47.5447 20.2247ZM131.281 20.2247H122.057C118.375 20.2247 116.01 21.5926 115.288 23.8424C114.53 26.2182 115.649 28.018 118.411 28.8819C120.361 29.4939 121.119 29.7458 122.924 30.3038C123.989 30.6458 123.574 31.5997 122.527 31.5997L112.96 31.5817C112.761 31.5817 112.581 31.7077 112.527 31.8877L111.48 34.9474C111.408 35.1634 111.57 35.3973 111.805 35.3973H121.823C126.083 35.3973 128.122 33.8855 128.826 31.3297C129.458 29.0979 128.032 27.3701 125.541 26.5781C123.393 25.8942 122.671 25.6422 120.613 24.9583C119.693 24.6523 119.891 23.7344 120.938 23.7344H130.234C130.433 23.7344 130.613 23.6084 130.668 23.4104L131.606 20.6387C131.678 20.4587 131.516 20.2247 131.281 20.2247ZM113.538 20.2247H109.187C108.989 20.2247 108.808 20.3507 108.754 20.5307L105.92 28.468C105.108 30.7178 103.935 31.6717 101.967 31.6717C99.6206 31.6717 99.1693 30.1598 99.6206 28.7739L102.436 20.6747C102.509 20.4587 102.346 20.2247 102.112 20.2247H97.7614C97.5628 20.2247 97.3823 20.3507 97.3281 20.5307L94.6206 28.432C92.9419 33.2735 96.1729 35.7573 101.39 35.7573C106.534 35.7573 109.386 33.5435 110.974 29.0079L113.881 20.6747C113.935 20.4587 113.772 20.2247 113.538 20.2247ZM93.6639 20.2247H86.552C86.4076 20.2247 86.2631 20.2967 86.1729 20.4227L79.1512 30.0158L78.5195 20.5487C78.5014 20.3687 78.357 20.2247 78.1765 20.2247H72.3101C72.1115 20.2247 71.931 20.3507 71.8768 20.5307L66.8407 34.9654C66.7685 35.1814 66.931 35.4153 67.1656 35.4153H70.9924C71.1909 35.4153 71.3714 35.2894 71.4256 35.1094L75.0357 24.9043L75.6675 34.9834C75.6855 35.2354 75.8841 35.4153 76.1368 35.4153H79.5844C79.7288 35.4153 79.8732 35.3433 79.9635 35.2354L88.1404 24.3463L84.3859 34.9654C84.3137 35.1814 84.4761 35.4153 84.7108 35.4153H88.5375C88.7361 35.4153 88.9166 35.2894 88.9707 35.1094L94.0068 20.6747C94.079 20.4587 93.9166 20.2247 93.6639 20.2247Z" fill="white"/>
</g>
</g>
<defs>
<clipPath id="clip0_2270_203">
<rect width="131.625" height="56" fill="white"/>
</clipPath>
<clipPath id="clip1_2270_203">
<rect width="131.625" height="15.5506" fill="white" transform="translate(0 20.2247)"/>
</clipPath>
</defs>
</svg>
