<svg width="107" height="56" viewBox="0 0 107 56" fill="none" xmlns="http://www.w3.org/2000/svg">
<g clip-path="url(#clip0_2270_261)">
<g clip-path="url(#clip1_2270_261)">
<path d="M0 33.9638V30.6844L8.2509 21.5383H0.0621033V18.4528H12.6603V21.8203L4.49807 30.8827H12.7179V33.9682L0 33.9638Z" fill="white"/>
<path d="M26.9916 27.3785H16.5537C16.5265 27.9358 16.6134 28.4927 16.8094 29.0155C17.0054 29.5384 17.3063 30.0161 17.6938 30.4199C18.308 31.0271 19.1385 31.3692 20.0049 31.372C21.0829 31.372 21.7438 31.1648 22.285 30.627C22.6516 30.2625 22.9109 29.8052 23.0347 29.3047H26.6323C26.4461 30.3582 25.9875 31.3455 25.3015 32.1698C23.9707 33.7169 22.0322 34.3428 20.0493 34.3428C19.1427 34.3662 18.2405 34.2095 17.3957 33.8817C16.551 33.554 15.7806 33.0619 15.1298 32.4342C13.5728 30.9444 12.7344 28.7714 12.7344 26.2369C12.7344 23.7024 13.4841 21.5603 14.9834 20.0396C15.6337 19.3909 16.4107 18.8814 17.2667 18.5425C18.1227 18.2037 19.0395 18.0426 19.9606 18.0693C22.2717 18.0693 24.3699 18.9949 25.6608 20.9344C26.8008 22.6314 27.067 24.39 26.9916 26.3251C27.0226 26.3339 26.9916 27.0612 26.9916 27.3785ZM22.3116 21.9526C22 21.6503 21.6285 21.4157 21.2206 21.264C20.8128 21.1122 20.3776 21.0465 19.9428 21.071C19.4448 21.0538 18.9496 21.1524 18.4968 21.359C18.0439 21.5656 17.6459 21.8745 17.3345 22.2611C16.7923 22.9492 16.5069 23.8028 16.5271 24.6766H23.2742C23.3026 23.6816 22.9598 22.7114 22.3116 21.9526Z" fill="white"/>
<path d="M37.6703 33.9638V24.4165C37.6703 22.627 37.0714 21.525 35.093 21.525C32.8395 21.525 31.8813 23.9096 31.8813 25.8182V33.9814H28.1329V12.4494H31.8813V20.1057C32.7685 18.7834 34.5207 18.0781 36.1398 18.0781C39.4713 18.0781 41.4187 20.4363 41.4187 23.6231V33.9638H37.6703Z" fill="white"/>
<path d="M52.3972 33.9638V24.4562C52.3972 22.6402 51.794 21.5383 49.8155 21.5383C48.4847 21.5383 47.6241 22.3714 47.1184 23.5041C46.5772 24.7251 46.6083 26.3339 46.6083 27.6474V33.9638H42.8555V18.4661H46.0139L46.2845 20.4628C47.216 18.8231 49.0747 18.0782 50.8757 18.0782C54.2027 18.0782 56.1545 20.4055 56.1545 23.6232V33.9638H52.3972Z" fill="white"/>
<path d="M68.4526 33.9637L68.2131 32.2667C67.286 33.6948 65.5515 34.3208 63.8348 34.3208C62.4486 34.3329 61.1014 33.8653 60.0243 32.9984C58.1656 31.4777 57.2695 29.1548 57.2695 26.2325C57.2695 23.1911 58.1966 20.8374 60.0553 19.3167C61.1394 18.4701 62.4875 18.0273 63.8658 18.0649C65.8443 18.0649 67.286 18.7217 67.9425 19.5283V12.4494H71.6953V33.9637H68.4526ZM64.5844 21.2076C64.0972 21.2011 63.6152 21.3086 63.1774 21.5215C62.7397 21.7344 62.3586 22.0466 62.0648 22.433C61.2841 23.4424 61.0978 24.8573 61.0978 26.1796C61.0978 27.5019 61.3063 28.9477 62.087 29.9615C62.3797 30.3486 62.7608 30.6612 63.1988 30.8734C63.6369 31.0857 64.1194 31.1916 64.6066 31.1824C67.5477 31.1824 68.1554 28.4143 68.1554 26.1796C68.1554 23.9449 67.5255 21.2076 64.5844 21.2076Z" fill="white"/>
<path d="M86.9761 27.3786H76.5382C76.5099 27.9359 76.5964 28.4932 76.7924 29.0161C76.9885 29.5391 77.2899 30.0168 77.6783 30.4199C78.2914 31.0261 79.1201 31.3681 79.985 31.372C81.0674 31.372 81.7283 31.1648 82.2651 30.6271C82.6331 30.2636 82.8926 29.8059 83.0148 29.3047H86.6168C86.4294 30.3579 85.9709 31.3449 85.286 32.1698C83.9552 33.7169 82.0167 34.3428 80.0382 34.3428C79.1316 34.3667 78.2293 34.2102 77.3844 33.8825C76.5395 33.5547 75.7692 33.0623 75.1187 32.4343C73.5617 30.9444 72.7189 28.7714 72.7189 26.2369C72.7189 23.7025 73.4685 21.5603 74.9679 20.0396C75.6193 19.3912 76.3972 18.882 77.2539 18.5432C78.1105 18.2043 79.0278 18.0431 79.9495 18.0693C82.2562 18.0693 84.3589 18.995 85.6453 20.9344C86.7853 22.6314 87.0559 24.3901 86.9761 26.3251C87.0027 26.3339 86.9761 27.0612 86.9761 27.3786ZM82.2961 21.9526C81.9842 21.6507 81.6126 21.4165 81.2048 21.2648C80.7971 21.113 80.3621 21.047 79.9273 21.071C79.4293 21.0534 78.9339 21.1519 78.481 21.3586C78.0281 21.5652 77.6301 21.8743 77.319 22.2611C76.7771 22.9497 76.4904 23.8027 76.5072 24.6766H83.2765C83.3004 23.6793 82.9511 22.7087 82.2961 21.9526Z" fill="white"/>
<path d="M95.9117 21.7718C93.2768 21.7718 91.8927 23.6496 91.8927 26.1532V33.9593H88.1133V18.466H91.2939L91.6266 20.7933C92.3452 19.0038 94.2039 18.2589 96.0315 18.2589C96.4235 18.2596 96.8149 18.2891 97.2026 18.347V21.9261C96.7791 21.8289 96.3463 21.7772 95.9117 21.7718Z" fill="white"/>
<path d="M102.648 25.0204C103.327 25.0204 103.991 24.8203 104.556 24.4454C105.12 24.0706 105.561 23.5377 105.82 22.9144C106.08 22.291 106.148 21.605 106.016 20.9432C105.883 20.2814 105.556 19.6735 105.076 19.1964C104.596 18.7193 103.984 18.3944 103.318 18.2627C102.652 18.1311 101.962 18.1987 101.334 18.4569C100.707 18.7151 100.171 19.1524 99.7936 19.7134C99.4163 20.2744 99.2149 20.934 99.2149 21.6088C99.2149 22.5136 99.5766 23.3814 100.221 24.0212C100.864 24.661 101.738 25.0204 102.648 25.0204Z" fill="white"/>
<path d="M102.648 34.2855C103.327 34.2855 103.991 34.0854 104.556 33.7105C105.12 33.3357 105.561 32.8029 105.82 32.1795C106.08 31.5561 106.148 30.8701 106.016 30.2083C105.883 29.5465 105.556 28.9386 105.076 28.4615C104.596 27.9844 103.984 27.6595 103.318 27.5278C102.652 27.3962 101.962 27.4638 101.334 27.722C100.707 27.9802 100.171 28.4175 99.7936 28.9785C99.4163 29.5395 99.2149 30.1991 99.2149 30.8739C99.2149 31.7787 99.5766 32.6465 100.221 33.2863C100.864 33.9261 101.738 34.2855 102.648 34.2855Z" fill="white"/>
<path d="M102.648 43.5506C103.327 43.5506 103.991 43.3505 104.556 42.9756C105.12 42.6008 105.561 42.068 105.82 41.4446C106.08 40.8212 106.148 40.1352 106.016 39.4734C105.883 38.8116 105.556 38.2037 105.076 37.7266C104.596 37.2495 103.984 36.9246 103.318 36.7929C102.652 36.6613 101.962 36.7289 101.334 36.9871C100.707 37.2453 100.171 37.6826 99.7936 38.2436C99.4163 38.8046 99.2149 39.4643 99.2149 40.139C99.2149 41.0438 99.5766 41.9116 100.221 42.5514C100.864 43.1912 101.738 43.5506 102.648 43.5506Z" fill="white"/>
<path d="M45.4296 37.7679V43.0573H44.6843V37.7679H42.8789V37.0627H47.2528V37.7679H45.4296Z" fill="white"/>
<path d="M49.3867 39.4556C49.079 39.4576 48.7843 39.5795 48.566 39.795C48.2613 40.1859 48.1199 40.6784 48.1712 41.1702V43.0788H47.457V38.7856H48.0958L48.1535 39.5394C48.2637 39.2946 48.4461 39.0889 48.6767 38.9496C48.9072 38.8103 49.175 38.7439 49.4444 38.7592C49.5587 38.7592 49.6729 38.7681 49.7859 38.7856V39.4909C49.6543 39.466 49.5206 39.4542 49.3867 39.4556Z" fill="white"/>
<path d="M54.1221 41.1658H51.0613C51.0592 41.5645 51.2098 41.949 51.4827 42.2413C51.7012 42.4358 51.9829 42.5455 52.2762 42.5503C52.5695 42.5552 52.8547 42.4549 53.0796 42.2678C53.2096 42.1404 53.2991 41.978 53.3369 41.8006H54.0467C54.0132 42.0135 53.9366 42.2174 53.8215 42.4C53.7063 42.5826 53.5551 42.7401 53.3769 42.8628C53.0498 43.0749 52.6673 43.1868 52.2767 43.1846C52.0042 43.1891 51.7341 43.1338 51.4857 43.0226C51.2372 42.9113 51.0165 42.7469 50.8395 42.5411C50.4757 42.0893 50.2854 41.5238 50.3027 40.9454C50.2841 40.4653 50.3992 39.9895 50.6354 39.5702C50.8044 39.2926 51.0447 39.0647 51.3315 38.9098C51.6184 38.7549 51.9415 38.6786 52.2679 38.6887C52.5165 38.6803 52.764 38.7252 52.9936 38.8203C53.2232 38.9153 53.4296 39.0584 53.5987 39.2396C53.9544 39.6526 54.144 40.1816 54.131 40.7251L54.1221 41.1658ZM53.1107 39.676C53.0098 39.5476 52.8794 39.445 52.7305 39.3767C52.5816 39.3085 52.4184 39.2766 52.2546 39.2837C52.0918 39.2859 51.9312 39.3207 51.7824 39.3861C51.6336 39.4515 51.4996 39.5461 51.3886 39.6643C51.2775 39.7824 51.1917 39.9217 51.1362 40.0737C51.0807 40.2257 51.0567 40.3873 51.0657 40.5487H53.3724C53.3775 40.238 53.2861 39.9333 53.1107 39.676Z" fill="white"/>
<path d="M58.102 43.079L58.0443 42.4266C57.9235 42.6593 57.7392 42.8534 57.5124 42.9867C57.2857 43.12 57.0257 43.1871 56.7623 43.1804C55.782 43.1804 55.2852 42.5941 55.2852 41.6024V38.7858H56.0127V41.501C56.0127 42.1445 56.2478 42.528 56.9353 42.528C57.0703 42.5266 57.2036 42.4973 57.3266 42.4419C57.4495 42.3865 57.5595 42.3063 57.6495 42.2062C57.9137 41.8675 58.0417 41.4434 58.0088 41.0162V38.7858H58.7363V43.079H58.102Z" fill="white"/>
<path d="M63.0923 43.079V40.355C63.0923 39.7115 62.8261 39.328 62.143 39.328C61.939 39.3375 61.7421 39.4048 61.5755 39.5219C61.4088 39.6391 61.2794 39.8012 61.2025 39.9892C61.0815 40.3419 61.0303 40.7146 61.0517 41.0867V43.079H60.3242V36.9522H61.0517V39.3544C61.1866 39.1434 61.3735 38.9703 61.5949 38.8514C61.8162 38.7326 62.0644 38.6721 62.316 38.6756C63.2963 38.6756 63.8198 39.2619 63.8198 40.2536V43.079H63.0923Z" fill="white"/>
<path d="M68.4843 43.1407C68.3991 43.1415 68.3147 43.1248 68.2363 43.0915C68.1579 43.0583 68.0873 43.0093 68.0289 42.9475C67.9706 42.8858 67.9258 42.8128 67.8972 42.733C67.8687 42.6532 67.8572 42.5684 67.8633 42.4839C67.7133 42.7121 67.5058 42.8973 67.2615 43.021C67.0171 43.1447 66.7444 43.2027 66.4704 43.1891C66.2837 43.2075 66.0953 43.1871 65.917 43.1292C65.7387 43.0713 65.5744 42.9771 65.4347 42.8528C65.2949 42.7284 65.1827 42.5766 65.1052 42.4068C65.0277 42.2371 64.9865 42.0532 64.9844 41.8668C64.9844 41.3158 65.3437 40.593 66.5237 40.5445L67.8544 40.4696V40.1566C67.8656 40.0385 67.8515 39.9194 67.8133 39.807C67.7751 39.6946 67.7136 39.5915 67.6327 39.5043C67.4346 39.3406 67.1795 39.2614 66.9229 39.2839C66.6382 39.2623 66.3563 39.3525 66.1377 39.5351C66.0685 39.6028 66.0139 39.6839 65.9773 39.7734C65.9407 39.8628 65.9228 39.9587 65.9248 40.0552H65.215C65.22 39.7237 65.3554 39.4073 65.5921 39.1737C65.9598 38.858 66.4381 38.6996 66.9229 38.7329C67.2305 38.6985 67.5413 38.7586 67.8133 38.9052C68.0854 39.0518 68.3057 39.2778 68.4444 39.5527C68.532 39.7637 68.5758 39.9901 68.5731 40.2183V42.2988C68.5731 42.528 68.6662 42.5853 68.8126 42.5853C68.8754 42.5822 68.9378 42.5734 68.9989 42.5588V43.0966C68.834 43.1547 68.6568 43.1699 68.4843 43.1407ZM67.819 41.0073L66.6567 41.0778C66.2131 41.0999 65.7074 41.307 65.7074 41.8492C65.7074 42.2327 65.947 42.5853 66.5636 42.5853C66.727 42.5895 66.8897 42.5613 67.042 42.5023C67.1944 42.4432 67.3334 42.3546 67.4508 42.2415C67.697 41.9754 67.8291 41.6243 67.819 41.263V41.0073Z" fill="white"/>
<path d="M72.8813 43.0791V40.3551C72.8813 39.7116 72.6152 39.3281 71.932 39.3281C71.7281 39.3376 71.5312 39.4049 71.3645 39.522C71.1979 39.6392 71.0685 39.8013 70.9916 39.9893C70.8706 40.342 70.8194 40.7147 70.8408 41.0868V43.0791H70.1133V38.7859H70.7476L70.8053 39.4295C70.9333 39.197 71.123 39.0039 71.3537 38.871C71.5844 38.7381 71.8473 38.6706 72.1139 38.6757C73.0943 38.6757 73.6088 39.262 73.6088 40.2537V43.0791H72.8813Z" fill="white"/>
<path d="M77.9543 43.079L77.9011 42.5192C77.7608 42.7295 77.5693 42.9011 77.3444 43.0182C77.1195 43.1354 76.8685 43.1942 76.6147 43.1892C76.3892 43.1992 76.1642 43.1628 75.9535 43.0824C75.7429 43.002 75.5511 42.8793 75.3904 42.722C74.9821 42.2052 74.7632 41.5656 74.7697 40.9086C74.7761 40.2517 75.0075 39.6164 75.4258 39.1076C75.7492 38.8124 76.1758 38.6543 76.6147 38.6668C76.8577 38.6609 77.0985 38.713 77.317 38.8189C77.5355 38.9248 77.7251 39.0812 77.8701 39.2751V36.9434H78.5931V43.0702L77.9543 43.079ZM77.4309 39.5528C77.3392 39.4626 77.2305 39.3912 77.111 39.3428C76.9915 39.2944 76.8635 39.2699 76.7344 39.2707C75.7674 39.2707 75.5101 40.1302 75.5101 40.9192C75.5101 41.7082 75.7674 42.5677 76.7344 42.5677C76.8635 42.5686 76.9915 42.5441 77.111 42.4957C77.2305 42.4473 77.3392 42.3759 77.4309 42.2856C77.7403 41.8965 77.9087 41.4151 77.9087 40.9192C77.9087 40.4233 77.7403 39.9419 77.4309 39.5528Z" fill="white"/>
<path d="M85.9921 43.0793L85.4953 41.6556H82.8648L82.3768 43.0793H81.6094L83.7431 37.0627H84.6303L86.7773 43.0793H85.9921ZM84.1645 37.8164L83.0999 40.9415H85.2424L84.1645 37.8164Z" fill="white"/>
<path d="M91.3639 43.079L91.2352 42.3605C91.0504 42.6239 90.8032 42.838 90.5154 42.9841C90.2277 43.1301 89.9081 43.2036 89.585 43.198C88.9819 43.2126 88.3971 42.991 87.957 42.5809C87.3404 41.9858 87.1719 41.1528 87.1719 40.0729C87.1719 39.1164 87.2961 38.2348 87.957 37.5957C88.3942 37.178 88.9786 36.947 89.585 36.9522C89.9054 36.9421 90.2245 36.9971 90.5227 37.1138C90.821 37.2305 91.0921 37.4065 91.3195 37.631C91.6331 37.9446 91.8194 38.362 91.843 38.8034H91.0489C91.0312 38.5581 90.9348 38.3248 90.7739 38.1379C90.6234 37.9764 90.4387 37.8503 90.233 37.7688C90.0274 37.6872 89.806 37.6521 89.585 37.6662C89.3813 37.6627 89.179 37.7 88.99 37.7757C88.801 37.8514 88.6292 37.9641 88.4849 38.107C87.9881 38.6139 87.957 39.4293 87.957 40.0552C87.957 40.6811 87.997 41.5274 88.5027 42.0343C88.6427 42.178 88.8112 42.2913 88.9975 42.3672C89.1837 42.443 89.3838 42.4798 89.585 42.4751C89.9939 42.4879 90.3912 42.3388 90.6896 42.0608C90.873 41.8522 91.0133 41.6098 91.1024 41.3474C91.1914 41.0849 91.2275 40.8076 91.2086 40.5313H89.585V39.8437H91.8918V43.0834L91.3639 43.079Z" fill="white"/>
</g>
</g>
<defs>
<clipPath id="clip0_2270_261">
<rect width="106.077" height="56" fill="white"/>
</clipPath>
<clipPath id="clip1_2270_261">
<rect width="106.077" height="31.1012" fill="white" transform="translate(0 12.4494)"/>
</clipPath>
</defs>
</svg>
