<svg width="109" height="56" viewBox="0 0 109 56" fill="none" xmlns="http://www.w3.org/2000/svg">
<g clip-path="url(#clip0_2270_254)">
<g clip-path="url(#clip1_2270_254)">
<path d="M38.946 32.569V16.0038H47.0719C48.2265 16.0038 49.1871 16.222 49.9468 16.6562C50.7065 17.0903 51.2815 17.6911 51.6694 18.4537C52.0574 19.2187 52.2513 20.1246 52.2513 21.1712C52.2513 22.2178 52.0458 23.14 51.6325 23.9356C51.2191 24.7311 50.6234 25.3483 49.8383 25.7824C49.0555 26.2165 48.0995 26.4348 46.9749 26.4348H41.6085V32.569H38.946ZM41.6085 24.1186H46.8595C47.6977 24.1186 48.3604 23.8628 48.843 23.3465C49.3256 22.8326 49.5681 22.1145 49.5681 21.197C49.5681 20.5845 49.4642 20.0659 49.2587 19.6388C49.0532 19.2117 48.7507 18.8855 48.3558 18.6602C47.9609 18.435 47.4599 18.3223 46.8595 18.3223H41.6085V24.1186ZM59.8969 32.8599C58.5022 32.8599 57.2991 32.63 56.2854 32.17C55.2717 31.7101 54.4958 30.999 53.9578 30.0322C53.4174 29.0677 53.1496 27.8428 53.1496 26.362V16.0038H55.812V26.4348C55.812 27.8029 56.1676 28.8331 56.8812 29.5253C57.5947 30.2176 58.5992 30.5626 59.8992 30.5626C61.2131 30.5626 62.2407 30.2176 62.975 29.5253C63.7116 28.8331 64.0788 27.8029 64.0788 26.4348V16.0038H66.7412V26.362C66.7412 27.8428 66.4687 29.0677 65.9215 30.0322C65.3742 30.999 64.5914 31.7101 63.5684 32.17C62.5455 32.63 61.324 32.8599 59.8969 32.8599ZM68.069 32.569V16.0038H70.6344L78.0699 26.3878C78.1645 26.484 78.2731 26.6225 78.3908 26.7985C78.5109 26.9768 78.6241 27.1528 78.7349 27.3288C78.8457 27.5048 78.9243 27.6503 78.9727 27.763H79.0905V16.0038H81.656V32.569H79.1852L71.6528 22.0653C71.5258 21.8728 71.3664 21.6264 71.1771 21.3284C70.9877 21.0304 70.8446 20.8004 70.7499 20.6408H70.6298V32.569H68.069ZM108.075 18.3223V16.0038H93.488L85.7201 24.2617V16.0038H83.0576V32.569H85.7201V27.3523L88.6896 24.5762L93.7975 32.569H96.9333L90.4954 22.6684L94.5872 18.3223H99.9721V32.569H102.632V18.3223H108.075ZM40.6756 39.5691C40.798 39.5409 40.9088 39.4963 41.0081 39.4353C41.1074 39.3743 41.1905 39.2945 41.2575 39.196L41.2967 39.562H41.5369V38.14H40.2345V38.4075H41.2252V38.4685C41.2252 38.668 41.1928 38.8322 41.1305 38.9613C41.0681 39.0904 40.9688 39.1866 40.8303 39.2476C40.6941 39.3109 40.5139 39.3415 40.2923 39.3415C40.0821 39.3415 39.9043 39.3039 39.7542 39.2312C39.6041 39.1584 39.4887 39.0411 39.4079 38.8792C39.327 38.7172 39.2855 38.506 39.2855 38.2409V38.1564C39.2855 37.9593 39.3086 37.7926 39.3571 37.6518C39.4032 37.5134 39.4725 37.3984 39.5649 37.3092C39.6573 37.2201 39.7658 37.1544 39.8951 37.1145C40.0221 37.0722 40.1676 37.0534 40.3292 37.0534C40.4539 37.0534 40.5717 37.0652 40.6825 37.0886C40.7934 37.1121 40.888 37.152 40.9688 37.2107C41.0497 37.2693 41.112 37.3421 41.1582 37.4313C41.2021 37.5228 41.2252 37.6307 41.2252 37.7621H41.5392C41.5392 37.5979 41.5115 37.4547 41.4561 37.3327C41.4015 37.2121 41.3182 37.1072 41.2136 37.0276C41.1074 36.9455 40.9804 36.8868 40.8326 36.8446C40.6848 36.8024 40.5186 36.7836 40.3338 36.7836C40.036 36.7836 39.7866 36.8376 39.5834 36.9432C39.3802 37.0488 39.2278 37.2083 39.1238 37.4172C39.0199 37.626 38.9691 37.8865 38.9691 38.1986C38.9691 38.6773 39.0823 39.0317 39.3063 39.264C39.5302 39.4963 39.8628 39.6137 40.3061 39.6137C40.4308 39.6113 40.5555 39.5972 40.6756 39.5691ZM43.3242 39.5527C43.435 39.5151 43.5251 39.4611 43.5967 39.3907C43.6682 39.3227 43.7237 39.2405 43.7606 39.149C43.7976 39.0575 43.8183 38.9589 43.8183 38.8557H43.5435C43.5435 38.9237 43.5297 38.9918 43.5043 39.0552C43.4789 39.1185 43.4419 39.1748 43.3934 39.2194C43.345 39.2664 43.2849 39.3016 43.2087 39.3297C43.1348 39.3555 43.0471 39.3696 42.9478 39.3696C42.8115 39.3696 42.6984 39.3438 42.606 39.2922C42.5137 39.2405 42.4421 39.1561 42.3913 39.0387C42.3428 38.9214 42.3174 38.7712 42.3174 38.5882H43.8345V38.4051C43.8345 38.1939 43.8022 38.0132 43.7352 37.8677C43.6682 37.7222 43.5713 37.6096 43.4419 37.5322C43.3126 37.4547 43.1533 37.4172 42.9616 37.4172C42.7561 37.4172 42.5829 37.4571 42.4444 37.5345C42.3058 37.612 42.2019 37.7316 42.1303 37.8936C42.0588 38.0531 42.0241 38.2596 42.0241 38.5131C42.0241 38.7618 42.0588 38.9683 42.1303 39.1303C42.2019 39.2922 42.3035 39.4119 42.4398 39.4916C42.576 39.5691 42.7423 39.609 42.9385 39.609C43.084 39.6113 43.2133 39.5925 43.3242 39.5527ZM42.4051 37.9663C42.4536 37.8631 42.5229 37.7856 42.6153 37.7363C42.7076 37.687 42.8162 37.6636 42.9455 37.6636C43.0332 37.6636 43.114 37.6753 43.1856 37.6988C43.2572 37.7222 43.3196 37.7621 43.3727 37.8161C43.4258 37.8701 43.465 37.9428 43.4951 38.032C43.5251 38.1212 43.5412 38.2315 43.5412 38.3652H42.3174C42.3266 38.2033 42.3566 38.0696 42.4051 37.9663ZM45.2731 39.5714C45.3747 39.5456 45.4601 39.5057 45.534 39.4517C45.6079 39.3978 45.6656 39.3321 45.7072 39.2499C45.7488 39.1678 45.7696 39.0763 45.7696 38.9683C45.7696 38.8533 45.7465 38.7618 45.7003 38.6914C45.6541 38.621 45.5894 38.5647 45.5109 38.5225C45.4324 38.4802 45.347 38.445 45.2546 38.4145C45.1623 38.3864 45.0699 38.3582 44.9821 38.33C44.8944 38.3019 44.809 38.2737 44.7304 38.2479C44.6619 38.2272 44.5977 38.1937 44.5411 38.1493C44.4926 38.1071 44.4695 38.0484 44.4695 37.971C44.4695 37.9194 44.4787 37.8771 44.4995 37.8372C44.518 37.7997 44.548 37.7668 44.5896 37.7387C44.6312 37.7129 44.6796 37.6917 44.7397 37.6777C44.7974 37.6636 44.869 37.6565 44.9498 37.6565C45.0861 37.6565 45.1877 37.6753 45.2569 37.7129C45.3262 37.7504 45.3747 37.795 45.4024 37.849C45.4301 37.9029 45.444 37.9569 45.444 38.0132V38.0649H45.7188C45.7188 38.0531 45.7188 38.0414 45.7211 38.0297C45.7234 38.0179 45.7234 38.0039 45.7234 37.9945C45.7234 37.9194 45.7095 37.849 45.6795 37.7809C45.6518 37.7129 45.6056 37.6518 45.5456 37.5979C45.4855 37.5439 45.407 37.4993 45.31 37.4688C45.2131 37.436 45.0976 37.4219 44.9614 37.4219C44.839 37.4219 44.7281 37.436 44.6311 37.4618C44.5342 37.4876 44.4533 37.5251 44.3864 37.5744C44.3194 37.6237 44.2686 37.6824 44.234 37.7528C44.1993 37.8208 44.1809 37.9006 44.1809 37.9874C44.1809 38.0883 44.1993 38.1728 44.2386 38.2385C44.2779 38.3042 44.331 38.3605 44.3979 38.4028C44.4649 38.445 44.5388 38.4802 44.6196 38.5084C44.7004 38.5365 44.7836 38.5624 44.8667 38.5858C44.9683 38.6187 45.0653 38.6468 45.1599 38.675C45.2546 38.7032 45.3308 38.7431 45.3886 38.7923C45.4486 38.844 45.4763 38.9167 45.4763 39.0153C45.4763 39.0927 45.4532 39.1584 45.407 39.21C45.3608 39.264 45.3008 39.3039 45.2223 39.3321C45.1461 39.3602 45.0583 39.3743 44.9614 39.3743C44.8482 39.3743 44.7489 39.3626 44.6635 39.3391C44.578 39.3156 44.5111 39.2757 44.4626 39.2171C44.4164 39.1608 44.391 39.081 44.3887 38.9754V38.9496C44.3887 38.9402 44.391 38.9284 44.3933 38.9167H44.1162C44.1139 38.9284 44.1116 38.9378 44.1116 38.9496V38.9824C44.1116 39.0833 44.1301 39.1725 44.1647 39.2499C44.1993 39.3274 44.2525 39.3931 44.3217 39.4471C44.391 39.501 44.4787 39.5433 44.5827 39.5714C44.6866 39.5996 44.8066 39.6137 44.9429 39.6137C45.063 39.6113 45.1738 39.5972 45.2731 39.5714ZM47.3837 39.5527C47.4945 39.5151 47.5845 39.4611 47.6561 39.3907C47.7277 39.3227 47.7831 39.2405 47.8201 39.149C47.857 39.0575 47.8778 38.9589 47.8778 38.8557H47.603C47.603 38.9237 47.5892 38.9918 47.5638 39.0552C47.5384 39.1185 47.5014 39.1748 47.4529 39.2194C47.4044 39.2664 47.3444 39.3016 47.2682 39.3297C47.1943 39.3555 47.1066 39.3696 47.0073 39.3696C46.871 39.3696 46.7579 39.3438 46.6655 39.2922C46.5731 39.2405 46.5016 39.1561 46.4531 39.0387C46.4023 38.9214 46.3792 38.7712 46.3792 38.5882H47.8963V38.4051C47.8963 38.1939 47.864 38.0132 47.797 37.8677C47.73 37.7222 47.633 37.6096 47.5037 37.5322C47.3744 37.4547 47.2151 37.4172 47.0234 37.4172C46.8179 37.4172 46.6447 37.4571 46.5062 37.5345C46.3676 37.612 46.2637 37.7316 46.1921 37.8936C46.1205 38.0531 46.0859 38.2596 46.0859 38.5131C46.0859 38.7618 46.1205 38.9683 46.1921 39.1303C46.2637 39.2922 46.3653 39.4119 46.5016 39.4916C46.6378 39.5691 46.8041 39.609 47.0003 39.609C47.1458 39.6113 47.2751 39.5925 47.3837 39.5527ZM46.4646 37.9663C46.5131 37.8631 46.5824 37.7856 46.6747 37.7363C46.7671 37.687 46.8756 37.6636 47.005 37.6636C47.0927 37.6636 47.1735 37.6753 47.2451 37.6988C47.3167 37.7222 47.379 37.7621 47.4321 37.8161C47.4853 37.8701 47.5245 37.9428 47.5545 38.032C47.5845 38.1212 47.6007 38.2315 47.6007 38.3652H46.3769C46.3884 38.2033 46.4161 38.0696 46.4646 37.9663ZM48.6029 39.562V36.6827H48.3212V39.562H48.6029ZM49.4388 39.562V36.6827H49.1571V39.562H49.4388ZM51.0044 39.5714C51.1037 39.5456 51.1914 39.5057 51.2653 39.4517C51.3392 39.3978 51.3946 39.3321 51.4385 39.2499C51.4801 39.1678 51.5009 39.0763 51.5009 38.9683C51.5009 38.8533 51.4778 38.7618 51.4293 38.6914C51.3831 38.621 51.3184 38.5647 51.2422 38.5225C51.1637 38.4802 51.0783 38.445 50.9859 38.4145C50.8936 38.3864 50.8035 38.3582 50.7134 38.33C50.6257 38.3019 50.5403 38.2737 50.4617 38.2479C50.3932 38.2272 50.329 38.1937 50.2724 38.1493C50.2239 38.1071 50.2008 38.0484 50.2008 37.971C50.1989 37.9249 50.209 37.8792 50.2301 37.8384C50.2511 37.7976 50.2825 37.7632 50.3209 37.7387C50.3601 37.7129 50.4109 37.6917 50.4687 37.6777C50.5287 37.6636 50.598 37.6565 50.6788 37.6565C50.815 37.6565 50.9166 37.6753 50.9859 37.7129C51.0552 37.7504 51.1037 37.795 51.1314 37.849C51.1591 37.9029 51.173 37.9569 51.173 38.0132V38.0649H51.4501C51.4501 38.0531 51.4501 38.0414 51.4524 38.0297C51.4547 38.0156 51.4547 38.0039 51.4547 37.9945C51.4547 37.9194 51.4408 37.849 51.4108 37.7809C51.3831 37.7129 51.3369 37.6518 51.2769 37.5979C51.2168 37.5439 51.1383 37.4993 51.0413 37.4688C50.9443 37.436 50.8289 37.4219 50.6927 37.4219C50.5703 37.4219 50.4594 37.436 50.3648 37.4618C50.2678 37.4876 50.187 37.5251 50.12 37.5744C50.053 37.6237 50.0022 37.6824 49.9676 37.7528C49.9329 37.8208 49.9145 37.9006 49.9145 37.9874C49.9145 38.0883 49.933 38.1728 49.9722 38.2385C50.0115 38.3042 50.0646 38.3605 50.1315 38.4028C50.1985 38.445 50.2724 38.4802 50.3532 38.5084C50.434 38.5365 50.5172 38.5624 50.6003 38.5858C50.7019 38.6187 50.8012 38.6468 50.8936 38.675C50.9882 38.7032 51.0644 38.7431 51.1222 38.7923C51.1822 38.844 51.2099 38.9167 51.2099 39.0153C51.2099 39.0927 51.1868 39.1584 51.1406 39.21C51.0944 39.264 51.0344 39.3039 50.9559 39.3321C50.8797 39.3602 50.7919 39.3743 50.695 39.3743C50.5818 39.3743 50.4825 39.3626 50.3971 39.3391C50.3116 39.3156 50.2447 39.2757 50.1962 39.2171C50.15 39.1608 50.1246 39.081 50.1223 38.9754V38.9496C50.1223 38.9402 50.1246 38.9284 50.1269 38.9167H49.8498C49.8475 38.9284 49.8452 38.9378 49.8452 38.9496V38.9824C49.8452 39.0833 49.8637 39.1725 49.8983 39.2499C49.9329 39.3274 49.9861 39.3931 50.0553 39.4471C50.1246 39.501 50.2124 39.5433 50.3163 39.5714C50.4202 39.5996 50.5403 39.6137 50.6765 39.6137C50.7943 39.6113 50.9028 39.5972 51.0044 39.5714ZM53.0618 39.5456C53.1657 39.501 53.2489 39.4424 53.3135 39.3696C53.3782 39.2945 53.4244 39.2077 53.4521 39.1091C53.4798 39.0106 53.496 38.905 53.496 38.7923H53.2212C53.2212 38.912 53.205 39.0153 53.1704 39.1021C53.1357 39.1889 53.0803 39.2546 53.0041 39.3016C52.9279 39.3485 52.824 39.372 52.6924 39.372C52.5677 39.372 52.4591 39.3438 52.3691 39.2875C52.279 39.2312 52.2098 39.1443 52.1636 39.027C52.1174 38.9097 52.092 38.7548 52.092 38.5671V38.4708C52.092 38.2714 52.1174 38.1141 52.1682 37.9992C52.219 37.8842 52.2906 37.7997 52.3806 37.7457C52.4707 37.6917 52.5746 37.6659 52.6924 37.6659C52.8171 37.6659 52.9187 37.6871 52.9949 37.7269C53.0711 37.7692 53.1288 37.8302 53.1634 37.9147C53.1981 37.9992 53.2166 38.1071 53.2166 38.2432H53.4937C53.4937 38.1188 53.4798 38.0062 53.4498 37.9053C53.4221 37.8044 53.3736 37.7176 53.3112 37.6472C53.2466 37.5768 53.1657 37.5204 53.0641 37.4829C52.9625 37.4453 52.8425 37.4242 52.697 37.4242C52.5007 37.4242 52.3345 37.4641 52.2005 37.5462C52.0666 37.6284 51.965 37.7481 51.8957 37.91C51.8288 38.0719 51.7941 38.2761 51.7941 38.5201C51.7941 38.7665 51.8288 38.9707 51.8957 39.1326C51.9627 39.2945 52.0643 39.4165 52.1959 39.494C52.3275 39.5738 52.4892 39.6137 52.6808 39.6137C52.8332 39.6113 52.9579 39.5879 53.0618 39.5456ZM54.191 39.5644V38.323C54.191 38.1798 54.2187 38.0602 54.2764 37.9616C54.3342 37.8654 54.4081 37.7927 54.5027 37.7457C54.5951 37.6988 54.6944 37.673 54.7983 37.673C54.8653 37.673 54.9276 37.68 54.9854 37.6941C55.0408 37.7082 55.0916 37.7316 55.1331 37.7645C55.1747 37.7973 55.207 37.8443 55.2301 37.9029C55.2532 37.9616 55.2648 38.0367 55.2648 38.1306V39.5644H55.5465V38.1024C55.5465 37.9334 55.5188 37.7997 55.4634 37.7011C55.4079 37.6026 55.3317 37.5322 55.2347 37.4876C55.1378 37.443 55.0223 37.4219 54.893 37.4219C54.7983 37.4219 54.7106 37.4313 54.6297 37.4547C54.5489 37.4758 54.475 37.5111 54.4058 37.5556C54.3388 37.6026 54.2741 37.6636 54.2164 37.741H54.1887V36.685H53.907V39.5644H54.191ZM56.8858 39.5691C56.9781 39.5409 57.0613 39.501 57.1398 39.4494C57.216 39.3978 57.2806 39.3368 57.3291 39.264H57.3568C57.3615 39.3274 57.373 39.386 57.3892 39.44C57.4053 39.494 57.4354 39.5339 57.4746 39.5644C57.5162 39.5925 57.5693 39.609 57.6363 39.609C57.6824 39.609 57.7286 39.6043 57.7725 39.5925C57.8164 39.5832 57.8556 39.5691 57.8949 39.5527V39.3696H57.7309C57.7161 39.3706 57.7013 39.3683 57.6873 39.3631C57.6734 39.3578 57.6607 39.3496 57.6501 39.3391C57.6316 39.318 57.6201 39.2828 57.6201 39.2335V38.0297C57.6201 37.9029 57.5901 37.7926 57.53 37.7035C57.47 37.612 57.3846 37.5439 57.2714 37.4946C57.1583 37.4453 57.0197 37.4219 56.8558 37.4219C56.6941 37.4219 56.551 37.443 56.4239 37.4852C56.2993 37.5275 56.2023 37.5908 56.133 37.6753C56.0637 37.7598 56.0314 37.8701 56.0314 38.0015V38.0484C56.0314 38.0625 56.0337 38.0742 56.036 38.0883H56.3062V38.025C56.3062 37.9593 56.32 37.8983 56.3501 37.8443C56.3801 37.7903 56.4332 37.7457 56.5094 37.7105C56.5856 37.6753 56.6895 37.6589 56.8188 37.6589C56.9551 37.6589 57.059 37.6753 57.1352 37.7082C57.2091 37.741 57.2622 37.788 57.2922 37.8466C57.3222 37.9053 57.3384 37.978 57.3384 38.0649V38.3324C57.1375 38.3324 56.9504 38.3418 56.7796 38.3605C56.6087 38.3793 56.4609 38.4145 56.3339 38.4661C56.2092 38.5178 56.1122 38.5905 56.0406 38.682C55.9714 38.7736 55.9367 38.8909 55.9367 39.034C55.9367 39.142 55.9552 39.2359 55.9921 39.3086C56.0291 39.3837 56.0776 39.4424 56.1399 39.4869C56.2 39.5315 56.2716 39.562 56.3501 39.5832C56.4286 39.6043 56.5071 39.6137 56.5902 39.6137C56.6941 39.6113 56.7934 39.5972 56.8858 39.5691ZM56.4378 39.3321C56.3755 39.3086 56.327 39.2711 56.29 39.2194C56.2554 39.1678 56.2369 39.1021 56.2369 39.0223C56.2369 38.9026 56.2785 38.8111 56.3616 38.7431C56.4447 38.6773 56.5671 38.6304 56.7311 38.6046C56.895 38.5788 57.0982 38.5647 57.3407 38.5647V38.7806C57.3407 38.8674 57.3199 38.9472 57.2806 39.02C57.2391 39.0927 57.1883 39.1537 57.1213 39.2053C56.9869 39.3125 56.8211 39.3712 56.6502 39.372C56.5717 39.3673 56.5002 39.3555 56.4378 39.3321ZM58.5461 39.562V37.7105H58.9548V37.4665H58.5461V37.0957C58.5461 37.03 58.5622 36.9784 58.5946 36.9432C58.6269 36.908 58.6777 36.8915 58.7446 36.8915H58.9525V36.6874C58.9294 36.678 58.9017 36.6686 58.8716 36.6639C58.8416 36.6592 58.8093 36.6545 58.7747 36.6522C58.74 36.6498 58.7054 36.6475 58.6731 36.6475C58.5622 36.6475 58.4791 36.6686 58.4191 36.7132C58.359 36.7578 58.3175 36.8141 58.2967 36.8821C58.2736 36.9502 58.2643 37.0229 58.2643 37.098V37.4641H57.9595V37.7082H58.2643V39.5597H58.5461V39.562ZM59.7976 39.6019C59.8346 39.5972 59.8692 39.5902 59.9061 39.5808C59.9408 39.5714 59.9708 39.562 59.9985 39.5503V39.3673H59.763C59.696 39.3673 59.6521 39.3508 59.6314 39.3156C59.6129 39.2804 59.6013 39.2288 59.6013 39.1561V37.7105H59.9962V37.4665H59.6013V36.8845H59.375L59.3196 37.4665H59.0425V37.7105H59.3196V39.2077C59.3196 39.2828 59.3312 39.3485 59.3519 39.4119C59.375 39.4729 59.4143 39.5198 59.4697 39.555C59.5251 39.5902 59.6013 39.6066 59.696 39.6066C59.726 39.6066 59.7607 39.6043 59.7976 39.6019ZM61.5687 39.562V37.7105H61.9774V37.4665H61.5687V37.0957C61.5687 37.03 61.5849 36.9784 61.6172 36.9432C61.6495 36.908 61.7003 36.8915 61.7673 36.8915H61.9751V36.6874C61.952 36.678 61.9243 36.6686 61.8943 36.6639C61.8643 36.6592 61.832 36.6545 61.7973 36.6522C61.7627 36.6498 61.7304 36.6475 61.6957 36.6475C61.5849 36.6475 61.5018 36.6686 61.4417 36.7132C61.3817 36.7578 61.3401 36.8141 61.317 36.8821C61.2939 36.9502 61.2847 37.0229 61.2847 37.098V37.4641H60.9799V37.7082H61.2847V39.5597H61.5687V39.562ZM63.169 39.5761C63.2544 39.5527 63.3329 39.5128 63.4045 39.4588C63.4761 39.4048 63.5407 39.3297 63.5985 39.2335H63.6262L63.6585 39.5644H63.8779V37.4688H63.5962V38.7079C63.5962 38.844 63.5684 38.9589 63.5107 39.0575C63.4569 39.1493 63.3804 39.2253 63.2889 39.2779C63.1974 39.3306 63.094 39.3582 62.9888 39.3579C62.9242 39.3579 62.8618 39.3508 62.8064 39.3368C62.751 39.3227 62.7002 39.3016 62.6586 39.2664C62.6171 39.2335 62.5847 39.1866 62.5617 39.1279C62.5386 39.0692 62.527 38.9941 62.527 38.9003V37.4665H62.2453V38.9284C62.2453 39.1819 62.3053 39.3579 62.4254 39.4588C62.5455 39.5597 62.7025 39.609 62.8988 39.609C62.9935 39.6113 63.0835 39.5996 63.169 39.5761ZM62.8618 37.0229V36.6968H62.5524V37.0229H62.8618ZM63.5869 37.0229V36.6968H63.2775V37.0229H63.5869ZM64.7115 39.5667V38.3558C64.7115 38.2714 64.7207 38.1892 64.7415 38.1118C64.76 38.0344 64.7923 37.964 64.8339 37.9029C64.8754 37.8419 64.9285 37.795 64.9955 37.7621C65.0602 37.7293 65.1387 37.7129 65.231 37.7129H65.3534V37.45C65.3372 37.4453 65.3142 37.4383 65.2841 37.4313C65.2518 37.4242 65.2195 37.4219 65.1825 37.4219C65.0856 37.4219 65.007 37.443 64.9424 37.4805C64.88 37.5204 64.8292 37.5697 64.7923 37.6331C64.7553 37.6941 64.7276 37.7574 64.7092 37.8208H64.6814L64.6584 37.4712H64.4321V39.5667H64.7115ZM66.8243 39.562V38.4779H67.8404C67.9974 38.4779 68.1359 38.4427 68.256 38.3723C68.3761 38.3019 68.4708 38.2033 68.5377 38.0766C68.6047 37.9499 68.6393 37.8044 68.6393 37.6425C68.6393 37.4852 68.6093 37.3468 68.5516 37.2248C68.4915 37.1027 68.4038 37.0065 68.286 36.9361C68.166 36.8657 68.0159 36.8305 67.8334 36.8305H66.5172V39.562H66.8243ZM66.8243 37.1004H67.815C67.9281 37.1004 68.0205 37.1215 68.0967 37.1661C68.1729 37.2107 68.2306 37.2717 68.2676 37.3538C68.3045 37.436 68.3253 37.5322 68.3253 37.6472C68.3253 37.8232 68.2791 37.9593 68.1844 38.0602C68.0898 38.1587 67.9674 38.2104 67.815 38.2104H66.8243V37.1004ZM69.9371 39.5761C70.0225 39.5527 70.101 39.5128 70.1726 39.4588C70.2442 39.4048 70.3088 39.3297 70.3666 39.2335H70.3943L70.4266 39.5644H70.646V37.4688H70.3643V38.7079C70.3643 38.844 70.3342 38.9589 70.2788 39.0575C70.2211 39.1537 70.1472 39.2288 70.0525 39.2804C69.9602 39.3321 69.8609 39.3579 69.757 39.3579C69.6923 39.3579 69.6299 39.3508 69.5745 39.3368C69.5191 39.3227 69.4683 39.3016 69.4267 39.2664C69.3852 39.2335 69.3529 39.1866 69.3298 39.1279C69.3067 39.0692 69.2951 38.9941 69.2951 38.9003V37.4665H69.0134V38.9284C69.0134 39.1819 69.0734 39.3579 69.1935 39.4588C69.3136 39.5597 69.4729 39.609 69.6669 39.609C69.7616 39.6113 69.8539 39.5996 69.9371 39.5761ZM72.5672 39.4963C72.6896 39.4189 72.7819 39.2992 72.8443 39.1349C72.9089 38.9707 72.9413 38.7595 72.9413 38.4967C72.9413 38.2503 72.9089 38.0484 72.8443 37.8889C72.7796 37.7316 72.6849 37.6143 72.5649 37.5369C72.4448 37.4594 72.2993 37.4219 72.1354 37.4219C72.0522 37.4219 71.9714 37.4313 71.8929 37.4547C71.8144 37.4758 71.7428 37.5111 71.6782 37.5556C71.6135 37.6026 71.5558 37.6636 71.5096 37.741H71.4819V36.685H71.2002V39.5644H71.4242L71.4565 39.257H71.4842C71.5581 39.3767 71.6481 39.4658 71.7567 39.5245C71.8652 39.5832 71.9899 39.6113 72.1308 39.6113C72.2993 39.6113 72.4471 39.5714 72.5672 39.4963ZM71.7359 39.264C71.6481 39.2007 71.5835 39.1091 71.5419 38.9895C71.5004 38.8698 71.4819 38.7243 71.4819 38.5506V38.4802C71.4819 38.316 71.498 38.1799 71.5327 38.0743C71.5673 37.9686 71.6112 37.8865 71.6666 37.8278C71.722 37.7692 71.7844 37.7293 71.8537 37.7058C71.9229 37.6824 71.9922 37.673 72.0638 37.673C72.1954 37.673 72.3039 37.7011 72.3917 37.7551C72.4794 37.8091 72.5441 37.8959 72.588 38.0132C72.6318 38.1306 72.6526 38.2831 72.6526 38.4708V38.5694C72.6526 38.7665 72.6295 38.9214 72.5833 39.0364C72.5372 39.1514 72.4702 39.2359 72.3848 39.2851C72.2993 39.3368 72.2 39.3602 72.0846 39.3602C71.9391 39.3602 71.8236 39.3274 71.7359 39.264ZM73.6548 39.562V36.6827H73.3731V39.562H73.6548ZM74.4907 37.037V36.6827H74.209V37.037H74.4907ZM74.4907 39.562V37.4665H74.209V39.562H74.4907ZM76.1741 39.5456C76.278 39.501 76.3611 39.4424 76.4258 39.3696C76.4904 39.2945 76.5366 39.2077 76.5643 39.1091C76.592 39.0106 76.6082 38.905 76.6082 38.7923H76.3334C76.3334 38.912 76.3172 39.0153 76.2826 39.1021C76.248 39.1889 76.1925 39.2546 76.1163 39.3016C76.0401 39.3485 75.9362 39.372 75.8046 39.372C75.6799 39.372 75.5714 39.3438 75.4813 39.2875C75.3913 39.2312 75.322 39.1443 75.2758 39.027C75.2296 38.9097 75.2065 38.7548 75.2065 38.5671V38.4708C75.2065 38.2714 75.2319 38.1141 75.2827 37.9992C75.3335 37.8842 75.4051 37.7997 75.4952 37.7457C75.5852 37.6917 75.6891 37.6659 75.8069 37.6659C75.9316 37.6659 76.0332 37.6871 76.1094 37.7269C76.1856 37.7692 76.2433 37.8302 76.278 37.9147C76.3126 37.9992 76.3311 38.1071 76.3311 38.2432H76.6082C76.6082 38.1188 76.5943 38.0062 76.5643 37.9053C76.5366 37.8044 76.4904 37.7176 76.4258 37.6472C76.3611 37.5768 76.2803 37.5204 76.1787 37.4829C76.0794 37.4453 75.957 37.4242 75.8115 37.4242C75.6153 37.4242 75.4513 37.4641 75.3151 37.5462C75.1811 37.6284 75.0795 37.7481 75.0103 37.91C74.9433 38.0719 74.9087 38.2761 74.9087 38.5201C74.9087 38.7665 74.9433 38.9707 75.0103 39.1326C75.0772 39.2945 75.1788 39.4165 75.3104 39.494C75.4421 39.5738 75.6037 39.6137 75.7954 39.6137C75.9455 39.6113 76.0702 39.5879 76.1741 39.5456ZM78.2523 39.562V38.438H79.3607L79.8964 39.562H80.2382L79.6655 38.3817C79.8087 38.3253 79.9241 38.2315 80.0119 38.0977C80.0996 37.964 80.1435 37.7997 80.1435 37.6049C80.1435 37.4571 80.1135 37.3233 80.0557 37.206C79.9957 37.0886 79.9103 36.9971 79.7925 36.9291C79.677 36.861 79.5293 36.8282 79.3514 36.8282H77.9406V39.5597H78.2523V39.562ZM78.2523 37.1004H79.3214C79.4346 37.1004 79.5269 37.1215 79.6031 37.1614C79.6793 37.2036 79.7371 37.26 79.7763 37.3351C79.8156 37.4101 79.8364 37.4993 79.8364 37.6049C79.8364 37.7809 79.7902 37.917 79.7001 38.0179C79.6078 38.1165 79.4831 38.1681 79.3237 38.1681H78.2546V37.1004H78.2523ZM81.8753 39.5527C81.9839 39.5151 82.0762 39.4611 82.1478 39.3907C82.2194 39.3227 82.2748 39.2405 82.3118 39.149C82.3487 39.0575 82.3695 38.9589 82.3695 38.8557H82.0947C82.0947 38.9237 82.0809 38.9918 82.0555 39.0552C82.0301 39.1185 81.9931 39.1748 81.9446 39.2194C81.8961 39.2664 81.8361 39.3016 81.7599 39.3297C81.686 39.3555 81.5982 39.3696 81.499 39.3696C81.3627 39.3696 81.2496 39.3438 81.1572 39.2922C81.0648 39.2405 80.9932 39.1561 80.9448 39.0387C80.894 38.9214 80.8709 38.7712 80.8709 38.5882H82.388V38.4051C82.388 38.1939 82.3556 38.0132 82.2887 37.8677C82.2217 37.7222 82.1247 37.6096 81.9954 37.5322C81.8661 37.4547 81.7068 37.4172 81.5151 37.4172C81.3096 37.4172 81.1364 37.4571 80.9979 37.5345C80.8593 37.612 80.7554 37.7316 80.6838 37.8936C80.6122 38.0531 80.5776 38.2596 80.5776 38.5131C80.5776 38.7618 80.6122 38.9683 80.6838 39.1303C80.7554 39.2922 80.857 39.4119 80.9933 39.4916C81.1295 39.5691 81.2958 39.609 81.492 39.609C81.6352 39.6113 81.7645 39.5925 81.8753 39.5527ZM80.9563 37.9663C81.0048 37.8631 81.0741 37.7856 81.1664 37.7363C81.2588 37.687 81.3673 37.6636 81.4966 37.6636C81.5844 37.6636 81.6652 37.6753 81.7368 37.6988C81.8084 37.7222 81.8707 37.7621 81.9238 37.8161C81.9769 37.8701 82.0162 37.9428 82.0462 38.032C82.0762 38.1212 82.0924 38.2315 82.0924 38.3652H80.8686C80.8778 38.2033 80.9078 38.0696 80.9563 37.9663ZM83.0923 39.562V36.6827H82.8105V39.562H83.0923ZM84.4523 39.5691C84.5447 39.5409 84.6278 39.501 84.7064 39.4494C84.7826 39.3978 84.8472 39.3368 84.8957 39.264H84.9234C84.928 39.3274 84.9396 39.386 84.9557 39.44C84.9719 39.494 85.0019 39.5339 85.0412 39.5644C85.0827 39.5925 85.1359 39.609 85.2028 39.609C85.249 39.609 85.2952 39.6043 85.3391 39.5925C85.3829 39.5832 85.4222 39.5691 85.4614 39.5527V39.3696H85.2975C85.2827 39.3706 85.2678 39.3683 85.2539 39.3631C85.24 39.3578 85.2273 39.3496 85.2167 39.3391C85.1982 39.318 85.1867 39.2828 85.1867 39.2335V38.0297C85.1867 37.9029 85.1566 37.7926 85.0966 37.7035C85.0366 37.612 84.9511 37.5439 84.838 37.4946C84.7248 37.4453 84.5863 37.4219 84.4223 37.4219C84.2607 37.4219 84.1175 37.443 83.9905 37.4852C83.8658 37.5275 83.7688 37.5908 83.6996 37.6753C83.6303 37.7598 83.598 37.8701 83.598 38.0015V38.0484C83.598 38.0625 83.6003 38.0742 83.6026 38.0883H83.8728V38.025C83.8728 37.9593 83.8889 37.8983 83.9189 37.8443C83.949 37.7903 84.0021 37.7457 84.0783 37.7105C84.1545 37.6753 84.2561 37.6589 84.3877 37.6589C84.5239 37.6589 84.6278 37.6753 84.704 37.7082C84.7779 37.741 84.8311 37.788 84.8611 37.8466C84.8911 37.9053 84.9072 37.978 84.9072 38.0649V38.3324C84.7064 38.3324 84.5193 38.3418 84.3484 38.3605C84.1776 38.3793 84.0298 38.4145 83.9028 38.4661C83.7781 38.5178 83.6788 38.5905 83.6095 38.682C83.5402 38.7736 83.5056 38.8909 83.5056 39.034C83.5056 39.142 83.5241 39.2359 83.561 39.3086C83.598 39.3837 83.6465 39.4424 83.7088 39.4869C83.7688 39.5315 83.8404 39.562 83.9189 39.5832C83.9974 39.6043 84.076 39.6137 84.1591 39.6137C84.263 39.6113 84.3623 39.5972 84.4523 39.5691ZM84.0067 39.3321C83.9443 39.3086 83.8958 39.2711 83.8589 39.2194C83.8243 39.1678 83.8058 39.1021 83.8058 39.0223C83.8058 38.9026 83.8474 38.8111 83.9305 38.7431C84.0136 38.6773 84.136 38.6304 84.2999 38.6046C84.4639 38.5788 84.6671 38.5647 84.9096 38.5647V38.7806C84.9096 38.8674 84.8888 38.9472 84.8495 39.02C84.808 39.0927 84.7572 39.1537 84.6902 39.2053C84.5557 39.3125 84.39 39.3712 84.2191 39.372C84.1406 39.3673 84.069 39.3555 84.0067 39.3321ZM86.3158 39.6019C86.3528 39.5972 86.3874 39.5902 86.4244 39.5808C86.459 39.5714 86.4913 39.562 86.5167 39.5503V39.3673H86.2812C86.2142 39.3673 86.1704 39.3508 86.1496 39.3156C86.1288 39.2804 86.1195 39.2288 86.1195 39.1561V37.7105H86.5144V37.4665H86.1195V36.8845H85.8933L85.8378 37.4665H85.5584V37.7105H85.8378V39.2077C85.8378 39.2828 85.8494 39.3485 85.8702 39.4119C85.8933 39.4729 85.9302 39.5198 85.9879 39.555C86.0434 39.5902 86.1195 39.6066 86.2142 39.6066C86.2442 39.6066 86.2789 39.6043 86.3158 39.6019ZM87.1725 37.037V36.6827H86.8908V37.037H87.1725ZM87.1725 39.562V37.4665H86.8908V39.562H87.1725ZM89.0522 39.494C89.1884 39.4165 89.2946 39.2945 89.3662 39.1326C89.4378 38.9707 89.4747 38.7642 89.4747 38.5154C89.4747 38.262 89.4378 38.0555 89.3662 37.8959C89.2946 37.7363 89.1907 37.6167 89.0522 37.5369C88.9159 37.4594 88.745 37.4195 88.5395 37.4195C88.3409 37.4195 88.1724 37.4594 88.0315 37.5369C87.8907 37.6143 87.7868 37.734 87.7152 37.8959C87.6436 38.0555 87.6066 38.262 87.6066 38.5154C87.6066 38.7642 87.6436 38.9707 87.7152 39.1326C87.7868 39.2945 87.893 39.4142 88.0315 39.494C88.1724 39.5714 88.3409 39.6113 88.5395 39.6113C88.745 39.6113 88.9159 39.5714 89.0522 39.494ZM88.1932 39.2851C88.0985 39.2288 88.0269 39.142 87.9784 39.0247C87.9276 38.9073 87.9045 38.7524 87.9045 38.5647V38.4685C87.9045 38.2808 87.9299 38.1259 87.9784 38.0085C88.0269 37.8912 88.1008 37.802 88.1932 37.7481C88.2878 37.6917 88.4033 37.6636 88.5418 37.6636C88.6804 37.6636 88.7958 37.6917 88.8905 37.7481C88.9852 37.8044 89.0568 37.8912 89.1053 38.0085C89.1538 38.1259 89.1792 38.2808 89.1792 38.4685V38.5647C89.1792 38.7524 89.1538 38.9073 89.1053 39.0247C89.0545 39.142 88.9829 39.2288 88.8905 39.2851C88.7958 39.3415 88.6804 39.3696 88.5418 39.3696C88.4033 39.3673 88.2855 39.3391 88.1932 39.2851ZM90.1883 39.5667V38.323C90.1883 38.1845 90.216 38.0672 90.2737 37.9733C90.3314 37.8771 90.4053 37.8044 90.5 37.7528C90.5924 37.7011 90.6917 37.6753 90.7956 37.6753C90.8625 37.6753 90.9249 37.6824 90.9826 37.6964C91.038 37.7105 91.0888 37.734 91.1304 37.7668C91.172 37.7997 91.2043 37.8466 91.2274 37.9053C91.2505 37.964 91.262 38.039 91.262 38.1329V39.5667H91.5437V38.1048C91.5437 37.9358 91.516 37.802 91.4606 37.7035C91.4052 37.6049 91.329 37.5345 91.232 37.4899C91.135 37.4453 91.0196 37.4242 90.8902 37.4242C90.7933 37.4242 90.7032 37.436 90.6178 37.4594C90.5323 37.4829 90.4538 37.5228 90.3799 37.5768C90.306 37.6307 90.2414 37.7058 90.1836 37.802H90.1559L90.1282 37.4712H89.9042V39.5667H90.1883ZM93.0862 39.5714C93.1878 39.5456 93.2733 39.5057 93.3472 39.4517C93.4211 39.3978 93.4788 39.3321 93.5204 39.2499C93.5619 39.1678 93.5827 39.0763 93.5827 38.9683C93.5827 38.8533 93.5596 38.7618 93.5111 38.6914C93.4649 38.621 93.4026 38.5647 93.3218 38.5225C93.2433 38.4802 93.1578 38.445 93.0655 38.4145C92.9731 38.3864 92.8807 38.3582 92.793 38.33C92.7052 38.3019 92.6198 38.2737 92.5413 38.2479C92.4727 38.2272 92.4086 38.1937 92.3519 38.1493C92.3034 38.1071 92.2804 38.0484 92.2804 37.971C92.2804 37.9194 92.2896 37.8771 92.3104 37.8372C92.3288 37.7997 92.3589 37.7668 92.4004 37.7387C92.4397 37.7129 92.4905 37.6917 92.5482 37.6777C92.6059 37.6636 92.6775 37.6565 92.7583 37.6565C92.8946 37.6565 92.9962 37.6753 93.0655 37.7129C93.1347 37.7504 93.1832 37.795 93.2109 37.849C93.2386 37.9029 93.2525 37.9569 93.2525 38.0132V38.0649H93.5319C93.5319 38.0531 93.5319 38.0414 93.5342 38.0297C93.5365 38.0156 93.5365 38.0039 93.5365 37.9945C93.5365 37.9194 93.5227 37.849 93.4927 37.7809C93.4626 37.7129 93.4188 37.6518 93.3587 37.5979C93.2987 37.5439 93.2202 37.4993 93.1232 37.4688C93.0262 37.436 92.9107 37.4219 92.7745 37.4219C92.6521 37.4219 92.5413 37.436 92.4443 37.4618C92.3473 37.4876 92.2665 37.5251 92.1995 37.5744C92.1326 37.6237 92.0818 37.6824 92.0471 37.7528C92.0125 37.8208 91.994 37.9006 91.994 37.9874C91.994 38.0883 92.0148 38.1728 92.0517 38.2385C92.091 38.3042 92.1441 38.3605 92.2111 38.4028C92.278 38.445 92.3519 38.4802 92.4327 38.5084C92.5136 38.5365 92.5967 38.5624 92.6798 38.5858C92.7814 38.6187 92.8807 38.6468 92.9731 38.675C93.0678 38.7032 93.144 38.7431 93.2017 38.7923C93.2617 38.844 93.2894 38.9167 93.2894 39.0153C93.2894 39.0927 93.2664 39.1584 93.2202 39.21C93.174 39.264 93.114 39.3039 93.0354 39.3321C92.9592 39.3602 92.8715 39.3743 92.7745 39.3743C92.6614 39.3743 92.5621 39.3626 92.4766 39.3391C92.3912 39.3156 92.3242 39.2757 92.2757 39.2171C92.2295 39.1608 92.2041 39.081 92.2018 38.9754V38.9496C92.2018 38.9402 92.2041 38.9284 92.2065 38.9167H91.9294C91.927 38.9284 91.9247 38.9378 91.9247 38.9496V38.9824C91.9247 39.0833 91.9432 39.1725 91.9778 39.2499C92.0125 39.3274 92.0656 39.3931 92.1349 39.4471C92.2041 39.501 92.2919 39.5433 92.3958 39.5714C92.4997 39.5996 92.6198 39.6137 92.756 39.6137C92.8761 39.6113 92.9846 39.5972 93.0862 39.5714ZM95.1345 39.5644V38.323C95.1345 38.1845 95.1622 38.0672 95.2176 37.9733C95.273 37.8771 95.3446 37.8044 95.4323 37.7528C95.5201 37.7011 95.6124 37.6753 95.7117 37.6753C95.7695 37.6753 95.8226 37.6824 95.8734 37.6964C95.9242 37.7105 95.9704 37.7316 96.0096 37.7645C96.0489 37.7973 96.0789 37.8419 96.0997 37.9006C96.1205 37.9616 96.132 38.0367 96.132 38.1259V39.5644H96.4137V38.3253C96.4137 38.1869 96.4414 38.0696 96.4945 37.9757C96.5477 37.8795 96.6169 37.8067 96.7024 37.7551C96.7878 37.7035 96.8802 37.6777 96.9795 37.6777C97.0395 37.6777 97.0949 37.6847 97.148 37.6988C97.2011 37.7129 97.245 37.734 97.2843 37.7668C97.3235 37.7997 97.3535 37.8443 97.3766 37.9029C97.3997 37.964 97.409 38.039 97.409 38.1282V39.5667H97.6907V38.0977C97.6907 37.9311 97.663 37.7973 97.6099 37.6988C97.5617 37.6049 97.4835 37.5304 97.3882 37.4876C97.2935 37.4453 97.185 37.4242 97.0626 37.4242C96.9702 37.4242 96.8848 37.436 96.8017 37.4618C96.7185 37.4876 96.6446 37.5275 96.5754 37.5814C96.5061 37.6354 96.446 37.7105 96.3906 37.802H96.3675C96.326 37.6636 96.2544 37.5674 96.1551 37.5087C96.0558 37.4524 95.9357 37.4219 95.7995 37.4219C95.7071 37.4219 95.6217 37.4336 95.5409 37.4571C95.46 37.4805 95.3862 37.5204 95.3169 37.5744C95.2499 37.6284 95.1853 37.7035 95.1298 37.7997H95.1021L95.0744 37.4688H94.8504V39.5644H95.1345ZM99.5888 39.4963C99.7112 39.4189 99.8035 39.2992 99.8659 39.1349C99.9305 38.9707 99.9629 38.7595 99.9629 38.4967C99.9629 38.2503 99.9305 38.0484 99.8659 37.8889C99.8012 37.7316 99.7066 37.6143 99.5865 37.5369C99.4641 37.4594 99.3209 37.4219 99.157 37.4219C99.0739 37.4219 98.993 37.4313 98.9145 37.4547C98.836 37.4758 98.7644 37.5111 98.6998 37.5556C98.6351 37.6026 98.5774 37.6636 98.5312 37.741H98.5035V36.685H98.2218V39.5644H98.4458L98.4781 39.257H98.5058C98.5797 39.3767 98.6698 39.4658 98.7783 39.5245C98.8868 39.5832 99.0115 39.6113 99.1524 39.6113C99.3186 39.6113 99.4664 39.5714 99.5888 39.4963ZM98.7552 39.264C98.6651 39.2007 98.6005 39.1091 98.5612 38.9895C98.5197 38.8698 98.5012 38.7243 98.5012 38.5506V38.4802C98.5012 38.316 98.5173 38.1799 98.552 38.0743C98.5866 37.9686 98.6305 37.8865 98.6859 37.8278C98.7413 37.7692 98.8037 37.7293 98.873 37.7058C98.9422 37.6824 99.0115 37.673 99.0831 37.673C99.2147 37.673 99.3232 37.7011 99.411 37.7551C99.4987 37.8091 99.5634 37.8959 99.6073 38.0132C99.6511 38.1306 99.6719 38.2831 99.6719 38.4708V38.5694C99.6719 38.7665 99.6488 38.9214 99.6003 39.0364C99.5542 39.1514 99.4872 39.2359 99.4018 39.2851C99.3163 39.3368 99.217 39.3602 99.1016 39.3602C98.9584 39.3602 98.8429 39.3274 98.7552 39.264ZM100.785 39.562V38.3042H102.344V39.562H102.653V36.8305H102.344V38.0297H100.785V36.8305H100.476V39.562H100.785ZM0 27.9695C0 37.1544 7.32692 44.6003 16.3649 44.6003C25.4029 44.6003 32.7298 37.1544 32.7298 27.9695C32.7298 18.7846 25.4029 11.3386 16.3649 11.3386C7.32692 11.3386 0 18.7846 0 27.9695Z" fill="white"/>
</g>
</g>
<defs>
<clipPath id="clip0_2270_254">
<rect width="108.299" height="56" fill="white"/>
</clipPath>
<clipPath id="clip1_2270_254">
<rect width="108.299" height="33.3227" fill="white" transform="translate(0 11.3386)"/>
</clipPath>
</defs>
</svg>
