<svg width="66" height="56" viewBox="0 0 66 56" fill="none" xmlns="http://www.w3.org/2000/svg">
<g clip-path="url(#clip0_2270_222)">
<g clip-path="url(#clip1_2270_222)">
<path fill-rule="evenodd" clip-rule="evenodd" d="M7.91225 19.114H10.4198V32.7474H7.91225V31.6031C7.18189 32.5526 6.11069 33.0152 4.74735 33.0152C3.38401 33.0152 2.31281 32.5283 1.38769 31.5301C0.462562 30.5319 0 29.3147 0 27.8783C0 26.4419 0.462562 25.2246 1.38769 24.2265C2.31281 23.2283 3.45704 22.7171 4.74735 22.7171C6.03765 22.7171 7.15754 23.1796 7.91225 24.1291V19.114ZM3.26228 29.8746C3.77353 30.3859 4.43086 30.6293 5.20991 30.6293C5.98896 30.6293 6.62194 30.3859 7.1332 29.8746C7.64445 29.3634 7.8879 28.6817 7.8879 27.8783C7.8879 27.0749 7.64445 26.4176 7.1332 25.9063C6.62194 25.3951 5.98896 25.1273 5.20991 25.1273C4.43086 25.1273 3.77353 25.3951 3.26228 25.9063C2.75103 26.4176 2.50757 27.0749 2.50757 27.8783C2.50757 28.6817 2.75103 29.339 3.26228 29.8746Z" fill="white"/>
<path fill-rule="evenodd" clip-rule="evenodd" d="M11.9051 28.852H21.8136C21.8623 28.5111 21.911 28.1946 21.911 27.8781C21.911 26.4174 21.4485 25.2002 20.499 24.2263C19.5739 23.2282 18.4053 22.7413 16.9689 22.7413C15.5325 22.7413 14.2179 23.2282 13.2684 24.2263C12.3189 25.2002 11.832 26.4174 11.832 27.8781C11.832 29.3389 11.8564 28.5355 11.9051 28.852ZM14.4126 26.953H19.3791C19.233 26.2957 18.9409 25.8088 18.4783 25.468C18.0401 25.1515 17.5288 24.981 16.9689 24.981C16.409 24.981 15.7273 25.1515 15.2891 25.5166C14.8509 25.8575 14.5587 26.3444 14.4126 26.953Z" fill="white"/>
<path d="M32.427 23.0092H29.6516L27.2658 29.8259L24.9043 23.0092H22.1289L25.8294 32.7474H28.7022L32.4027 23.0092H32.427Z" fill="white"/>
<path d="M35.3481 25.7852C35.3481 26.053 35.5186 26.2478 35.8594 26.4182C36.2002 26.5643 36.6384 26.7103 37.1253 26.8564C37.6123 26.9781 38.1235 27.1242 38.6104 27.319C39.0973 27.4894 39.5112 27.8059 39.852 28.2441C40.1929 28.6823 40.3876 29.2423 40.3876 29.8996C40.3876 30.8977 40.0224 31.6768 39.2677 32.2124C38.5374 32.748 37.5879 33.0158 36.4924 33.0158C34.496 33.0158 33.1327 32.2367 32.4023 30.703L34.5934 29.4857C34.8856 30.3378 35.5185 30.7517 36.4924 30.7517C37.4662 30.7517 37.8314 30.4839 37.8314 29.9239C37.8314 29.364 37.6609 29.4614 37.2958 29.2909C36.9549 29.1205 36.5411 28.9745 36.0542 28.8527C35.5672 28.731 35.056 28.5606 34.5691 28.3658C34.0822 28.1711 33.644 27.8546 33.3031 27.4407C32.9623 27.0025 32.7919 26.4912 32.7919 25.8339C32.7919 25.1766 32.7919 25.7365 32.7919 25.6878H35.3725C35.3725 25.7122 35.3725 25.7365 35.3725 25.7852H35.3481Z" fill="white"/>
<path d="M45.4539 25.4201H47.645V23.0099H45.4539V20.2833L42.9464 21.038V23.0099H41.2422V25.4201H42.9464V29.4615C42.9464 30.8005 43.2872 31.7256 43.9932 32.2368C44.6992 32.7481 45.9165 32.9185 47.645 32.7238V30.4353C47.1581 30.4596 46.7686 30.4596 46.4278 30.4353C46.1113 30.4109 45.8678 30.3136 45.6974 30.1675C45.527 30.0214 45.4539 29.7536 45.4539 29.4371V25.3958V25.4201Z" fill="white"/>
<path d="M52.2936 24.6896C52.5371 24.0566 52.9023 23.5941 53.4379 23.2776C53.9735 22.9611 54.5821 22.815 55.2394 22.815V25.6148C54.4847 25.5174 53.7787 25.6878 53.1701 26.0773C52.5614 26.4912 52.2693 27.1485 52.2693 28.0736V28.8283H49.7617V22.9855H52.2693V24.6653L52.2936 24.6896Z" fill="white"/>
<path d="M65.9519 23.0092H63.2739L61.1072 29.5581L58.5752 23.0092H55.8242L59.8169 32.4309C59.5734 33.0882 59.2569 33.5751 58.8674 33.8673C58.4779 34.1594 57.9423 34.3055 57.2606 34.3055V36.6426C58.5022 36.7157 59.5491 36.4235 60.3768 35.7905C61.2289 35.1576 61.8862 34.1594 62.3975 32.7474L65.9519 23.0092Z" fill="white"/>
</g>
</g>
<defs>
<clipPath id="clip0_2270_222">
<rect width="65.976" height="56" fill="white"/>
</clipPath>
<clipPath id="clip1_2270_222">
<rect width="65.976" height="17.7721" fill="white" transform="translate(0 19.114)"/>
</clipPath>
</defs>
</svg>
