<svg width="65" height="56" viewBox="0 0 65 56" fill="none" xmlns="http://www.w3.org/2000/svg">
<path fill-rule="evenodd" clip-rule="evenodd" d="M32.5 11.935C50.2569 11.935 64.6449 19.1281 64.6449 28C64.6449 36.872 50.2569 44.065 32.5 44.065C14.7431 44.0514 0.355133 36.8583 0.355133 28C0.355133 19.1281 14.7431 11.935 32.5 11.935ZM32.5 13.0815C17.2396 13.0815 4.87823 19.7559 4.87823 28C4.87823 36.2304 17.2396 42.9049 32.5 42.9049C47.7604 42.9049 60.1218 36.2304 60.1218 28C60.1352 19.7559 47.7604 13.0815 32.5 13.0815ZM47.8678 25.6251C47.8007 25.8161 47.6799 25.9799 47.5188 26.1028C47.3444 26.2393 47.1699 26.3485 46.9685 26.4304C46.8612 26.485 46.7404 26.5259 46.633 26.5805C46.5927 26.6351 46.5391 26.7306 46.4854 26.7989C46.284 27.0582 46.0022 27.2493 45.7203 27.3858C45.3579 27.5632 44.9687 27.6861 44.5795 27.7816C42.9152 28.1911 41.2778 28.6552 39.6403 29.1602C38.2579 29.597 36.8755 30.0201 35.5199 30.4978C31.9229 31.7262 28.4332 33.2822 25.0644 35.043C23.1183 36.053 21.1721 37.104 19.2528 38.1686C18.7696 38.4416 18.0717 38.8647 17.508 38.5781C17.253 38.4553 17.159 38.1823 17.159 37.9229C16.9711 38.0458 16.7027 38.0867 16.5014 37.9366C16.2732 37.7728 16.2061 37.3906 16.1927 37.2541C17.0919 36.7628 18.0046 36.2577 18.9173 35.78C19.0112 36.1076 19.1186 36.4352 19.226 36.7491C19.3199 37.0084 19.4139 37.2678 19.5347 37.5135C19.8434 37.1449 20.1387 36.7628 20.4071 36.3533C20.8097 35.7391 21.1855 35.1249 21.5211 34.4697C21.7627 34.3469 22.1251 34.1694 22.3666 34.0602C22.6351 33.9374 23.0243 33.7599 23.2793 33.6235V33.8828C23.2793 34.1148 23.2927 34.3332 23.3062 34.5925C23.3196 34.7427 23.3464 34.9611 23.3599 35.1112L24.6886 33.6644C24.6886 33.5279 24.702 33.3368 24.7154 33.1867C24.7154 33.1184 24.7289 33.0229 24.7289 32.9683C24.7557 32.9546 24.8765 32.9001 24.9033 32.8864C25.3999 32.668 25.8831 32.436 26.3797 32.2312C26.5542 32.5725 26.7287 32.8045 27.0105 33.0502C27.024 33.0229 27.0642 32.9956 27.0777 32.9683C27.3729 32.5315 27.6011 32.0538 27.8561 31.6034C27.9366 31.5624 28.0709 31.5215 28.1514 31.4805C28.2453 31.4396 28.3796 31.385 28.4601 31.3577C28.5003 31.4259 28.5406 31.5078 28.5809 31.5761C28.6614 31.7126 28.7419 31.8491 28.8493 31.9719C28.9164 32.0538 29.0238 32.163 29.1043 32.2312C29.1849 32.0948 29.3056 31.9037 29.3996 31.7672C29.5472 31.5215 29.7083 31.2622 29.8425 31.0165C29.8828 30.9482 29.9365 30.839 29.9767 30.7708C30.2452 30.6616 30.527 30.566 30.7954 30.4705C30.9028 30.4296 31.037 30.375 31.1444 30.3477C31.2786 30.607 31.4263 30.8527 31.6142 31.0711C31.6544 31.112 31.7081 31.1803 31.7618 31.2212C31.9497 30.9619 32.1376 30.7162 32.3255 30.4569C32.4732 30.2385 32.6208 30.0064 32.7684 29.7744C32.9429 29.7198 33.2113 29.6243 33.3858 29.5697C33.6274 29.4878 33.9898 29.3649 34.2448 29.283C34.3656 29.5697 34.5132 29.8563 34.7012 30.102C34.7414 30.1566 34.7951 30.2248 34.8488 30.2658C34.9293 30.1429 35.0501 29.9791 35.1306 29.8563C35.3588 29.5287 35.5467 29.1738 35.748 28.819C35.9091 28.7644 36.1507 28.6961 36.3117 28.6415C36.4594 28.6006 36.6876 28.5323 36.8218 28.4914C36.7949 28.6688 36.7681 28.9281 36.7412 29.0919C36.7144 29.2694 36.6741 29.5424 36.6339 29.7198L38.1505 28.7234C38.1639 28.6279 38.1774 28.4641 38.1908 28.3685C38.2042 28.2866 38.2176 28.1638 38.231 28.0819C38.4458 28.041 38.6471 27.9727 38.8484 27.9045L40.0564 27.5769C40.0698 27.5769 40.0967 27.5632 40.1235 27.5632L40.1772 27.5496C40.204 27.5359 40.2309 27.5359 40.2443 27.5359C40.3248 27.768 40.3919 27.9864 40.5127 28.2047C40.5396 28.2593 40.5798 28.3276 40.6067 28.3822C40.7141 28.2593 40.8885 28.0546 40.9959 27.9318C41.0764 27.8362 41.1435 27.7407 41.2241 27.6451L41.4522 27.3585L41.5596 27.2084C41.6536 27.1811 41.7744 27.1538 41.8683 27.1265C42.5126 26.9627 43.1568 26.7989 43.801 26.6487C43.8413 26.7443 43.895 26.8535 43.9487 26.949C44.0158 27.0719 44.0829 27.1947 44.1634 27.3039C44.1903 27.3312 44.2305 27.3858 44.2574 27.4131C44.3111 27.3449 44.405 27.263 44.4587 27.1947C44.6466 26.99 44.8479 26.7306 45.0224 26.5123C45.0627 26.4577 45.1298 26.3758 45.17 26.3212C46.0827 26.0755 46.982 25.8434 47.8678 25.6251ZM45.9217 19.0871C46.1632 19.1281 46.378 19.2782 46.5122 19.4829C46.8343 19.9334 46.7404 20.6568 46.7001 21.23V21.2846L44.5929 22.6632L44.2976 23.4958C44.3647 23.605 44.4184 23.7005 44.5124 23.7961C44.7271 24.0008 45.0224 24.0281 45.2774 23.8916C45.6398 23.6869 45.8545 23.3047 46.029 22.9362C46.1096 22.7451 46.1901 22.554 46.2572 22.3629C46.284 22.2947 46.3109 22.2128 46.3377 22.1309L46.3512 22.0899L46.7001 22.7587C46.5391 23.1409 46.378 23.5094 46.1901 23.878C45.9753 24.3284 45.7338 24.7652 45.4653 25.1883C45.2103 25.5841 44.9419 25.9799 44.6466 26.3485C44.5526 26.4713 44.4453 26.5941 44.3379 26.717C44.056 26.3212 43.9487 25.9117 43.8681 25.4203C43.7742 24.888 43.7473 24.3147 43.7473 23.7824C43.7473 23.5094 43.7473 23.2501 43.7608 22.9771V22.9225C43.4521 23.4958 43.1434 24.0554 42.8078 24.615C42.4723 25.161 42.1233 25.707 41.7609 26.2256C41.4254 26.7033 41.0899 27.1811 40.7141 27.6451C40.4456 26.99 40.3114 26.2802 40.2443 25.5705C40.1906 25.1337 40.1906 24.7106 40.2175 24.2601C40.2443 23.7278 40.3248 23.1819 40.4188 22.6495C40.4188 22.6222 40.4322 22.5949 40.4322 22.5676L40.4054 22.5949L40.3785 22.6222L40.3651 22.6359C40.1906 22.8406 39.949 23.0727 39.694 23.1546C39.6001 23.1819 39.5329 23.1682 39.4658 23.1273C39.3987 23.0863 39.3585 23.0044 39.3182 22.9089C39.2914 22.8543 39.2914 22.8133 39.2779 22.7451L39.2108 22.9089C39.1437 23.0727 39.0766 23.2365 39.0095 23.4139L38.9424 23.5777C38.3653 25.0927 37.976 26.676 37.7881 28.2866L37.7747 28.4504L37.1305 28.8872C37.1573 28.6688 37.1976 28.4641 37.2244 28.2457C37.5063 26.4167 37.7479 24.6014 37.8418 22.7587C37.8552 22.6359 37.8552 22.4585 37.721 22.4039C37.4929 22.3083 37.2378 22.7178 37.1573 22.8816C37.0097 23.1546 36.8889 23.4275 36.7815 23.7142C36.7681 24.2738 36.7144 24.8198 36.607 25.3657C36.4325 26.2666 36.1104 27.1401 35.7212 27.9591C35.6004 28.2047 35.4662 28.4504 35.332 28.6961C35.1709 28.9827 34.9964 29.2694 34.8219 29.556C34.7951 29.5014 34.7548 29.4332 34.728 29.3786C34.6475 29.2284 34.5804 29.051 34.5267 28.9009C34.3119 28.3003 34.1911 27.6724 34.0972 27.0446C34.0703 26.8535 34.0569 26.6624 34.0301 26.4713C33.4529 27.9181 32.6611 29.2557 31.7618 30.5251C31.4531 30.1156 31.2518 29.6652 31.0907 29.1875C30.9834 28.8872 30.8894 28.5869 30.8223 28.2866C30.7954 28.3549 30.7418 28.4504 30.7149 28.5187C30.4465 29.0919 30.1378 29.7062 29.8559 30.2112C29.5741 30.7162 29.3459 31.0984 29.0909 31.5624C29.0372 31.5078 28.9835 31.4123 28.9433 31.344C28.7554 31.0438 28.6346 30.6889 28.5406 30.3477C28.4601 30.0747 28.393 29.8017 28.3527 29.5287C28.2453 29.8426 28.138 30.1566 28.0037 30.4705C27.7085 31.1393 27.3863 31.7808 26.9971 32.395C26.6079 31.8491 26.5139 31.3168 26.4603 30.5251C26.42 29.7334 26.4871 28.6825 26.6213 27.768C26.6616 27.5086 26.7018 27.1947 26.7287 26.9763C26.7555 26.7579 26.7824 26.6214 26.7824 26.444C26.7824 26.3212 26.6884 26.2256 26.5676 26.2529C26.4468 26.2939 26.3529 26.444 26.2858 26.5396C26.0442 26.9081 25.8429 27.3176 25.6684 27.7134C25.212 28.7371 24.8631 29.829 24.6483 30.9346C24.5141 31.617 24.4067 32.3131 24.3531 33.0229C24.3396 33.1321 24.3396 33.2959 24.3262 33.4187V33.4733L23.682 34.1558C23.682 33.992 23.6954 33.7463 23.6954 33.5825C23.7222 32.4769 23.843 31.3713 24.0175 30.2794C24.1115 29.6789 24.192 29.0646 24.3128 28.4641C24.3665 28.1774 24.4202 27.8772 24.4873 27.5905C24.4336 27.7407 24.3396 27.9454 24.2859 28.0956C23.9101 29.01 23.4941 29.9382 23.0377 30.8117C22.0043 32.8045 20.8903 34.8792 19.6286 36.7491C19.3334 35.8483 19.0783 34.9474 18.9039 34.0056C18.6354 32.5861 18.5415 31.1257 18.6086 29.6789C18.6891 27.9181 19.0649 26.171 19.83 24.5741C20.1521 23.9053 20.5413 23.2638 20.9842 22.6632C21.3063 22.2401 21.8029 21.6395 22.3666 21.5713C22.5411 21.544 22.729 21.5849 22.8767 21.6941C23.3599 21.9944 23.5612 22.8816 23.6417 23.4548C23.7222 23.9872 23.6954 24.6014 23.6551 25.1883L23.6417 25.2975L22.984 25.5295C23.078 25.0654 23.1719 24.615 23.1183 24.1373C23.1048 24.0281 23.078 23.8916 23.0109 23.7961C22.9438 23.6732 22.823 23.6596 22.729 23.6732C22.474 23.7005 22.219 24.0554 21.9774 24.4512C21.7493 24.8334 21.5211 25.2292 21.4137 25.4203C20.7963 26.5668 20.2594 27.768 19.7763 28.9827C19.5884 29.4468 19.4139 29.9245 19.2662 30.3886C19.2528 30.7298 19.2797 31.0574 19.3602 31.385C19.4542 31.7399 19.7092 32.2176 20.1252 32.2312C20.5413 32.2312 20.8232 32.0538 21.2258 31.658C21.6285 31.2622 22.058 30.7025 22.5009 30.0337C22.9438 29.3786 23.4404 28.546 23.8296 27.7407C24.1652 27.0309 24.447 26.2802 24.6752 25.5295C24.9302 24.6696 25.1449 23.7824 25.3194 22.8952C25.4134 22.4175 25.5073 21.9398 25.5878 21.4484C25.6013 21.3529 25.6281 21.2164 25.6415 21.1072L25.655 21.0526L26.4334 20.5749C26.3395 20.9025 26.2589 21.23 26.1918 21.5576C26.1247 21.8442 26.0442 22.1718 25.9771 22.4585C25.7623 23.3729 25.5878 24.3011 25.4268 25.2292C25.3865 25.434 25.3463 25.7479 25.306 25.9526C25.3999 25.7615 25.4805 25.5841 25.5878 25.4067C25.8026 25.0791 26.1247 24.6969 26.5274 24.6014C27.185 24.4512 27.3595 25.2565 27.3863 25.7479C27.3998 26.212 27.3461 26.6624 27.2924 27.1128L27.2656 27.3585L27.2253 27.727C27.1716 28.1638 27.1448 28.6142 27.1313 29.051C27.1313 29.2421 27.1582 29.556 27.3595 29.6379C27.5743 29.7198 27.7756 29.4741 27.8561 29.324C28.0709 28.9418 28.1916 28.505 28.299 28.0819C28.6077 26.8671 28.7956 25.6114 28.903 24.3557L28.9164 24.1646L29.668 23.7824C29.5472 24.3284 29.4533 24.8334 29.3459 25.3657C29.2117 26.0618 29.1312 26.7443 29.0506 27.4404C29.0104 27.7816 29.0104 28.1911 29.0372 28.3549C29.0775 28.5869 29.1849 28.819 29.4399 28.8599C29.5875 28.8872 29.7217 28.7917 29.8291 28.6825C29.923 28.5869 29.9902 28.4777 30.0573 28.3685C30.5941 27.4813 30.7686 26.444 30.8894 25.434C30.9699 24.7242 31.131 23.9326 31.5739 23.3593C31.7887 23.0863 32.1376 22.8679 32.4732 23.0454C33.104 23.3729 33.1845 24.5058 33.2248 25.1337V25.1746L32.6611 25.6933C32.6745 25.2565 32.6745 24.8198 32.6074 24.383C32.594 24.3011 32.5537 24.2055 32.4597 24.2328C32.4329 24.2328 32.406 24.2601 32.3926 24.2738C32.3658 24.3147 32.3389 24.383 32.3121 24.4376C32.0571 25.0518 31.8558 25.666 31.641 26.2666C31.5605 26.485 31.4665 26.7443 31.3726 26.9627C31.2921 27.1538 31.2115 27.3449 31.131 27.5496C31.1847 27.7134 31.3323 27.8908 31.4665 27.9727C31.6679 28.1092 31.8692 28.1365 32.0571 28.0819C32.2718 28.0273 32.4732 27.8772 32.6611 27.6861C33.01 27.3176 33.3053 26.8262 33.4529 26.5259C33.6274 26.1437 33.7885 25.7479 33.9093 25.3384C33.9764 25.12 34.0301 24.9017 34.0972 24.6833L34.1509 24.4649C34.3119 23.837 34.4864 23.2092 34.7817 22.6359C34.9427 22.3356 35.2246 21.9944 35.5736 21.9125C36.0702 21.7896 36.4191 22.281 36.5936 22.6768C36.607 22.6905 36.607 22.7178 36.6204 22.7314C36.6473 22.6905 36.6741 22.6222 36.701 22.5676C36.8889 22.2264 37.1036 21.8715 37.3586 21.5713C37.5197 21.3938 37.7747 21.2164 38.0163 21.2846C38.2579 21.3529 38.2982 21.6259 38.3384 21.8306C38.4055 22.3083 38.3921 22.7997 38.3653 23.2911L38.3518 23.4002L38.3653 23.3593L38.4458 23.1546C38.7008 22.5131 38.9156 21.8715 39.1303 21.2164C39.1706 21.1072 39.1974 20.998 39.2377 20.8888L39.2914 20.725L39.9222 20.5066C39.8282 20.7387 39.7343 20.9843 39.694 21.2437C39.6537 21.4484 39.5866 21.9534 39.8282 22.0626C40.043 22.1582 40.3114 21.8442 40.4188 21.6941C40.7275 21.2573 40.9825 20.766 41.3449 20.3701C41.5999 20.0699 42.0428 19.7423 42.4454 19.9743C42.9152 20.2336 43.0897 20.8888 43.13 21.3802C43.1568 21.6805 43.1568 21.9671 43.13 22.2537V22.3493L40.9422 24.0008L40.7543 24.7106C40.9154 24.8744 41.1301 24.929 41.3583 24.8744C41.5328 24.8471 41.7073 24.7379 41.8952 24.5877C42.2173 24.3147 42.526 23.8916 42.781 23.4958C43.13 22.9498 43.4387 22.3629 43.7339 21.7896L43.895 21.4757C44.1366 20.998 44.3647 20.5066 44.6332 20.0426C44.9016 19.6194 45.3043 19.0052 45.9217 19.0871ZM36.1373 23.0727C36.097 23.0044 36.0433 22.9908 35.9896 23.0044C35.8957 23.0181 35.842 23.1273 35.8152 23.2092C35.7615 23.332 35.7078 23.4412 35.6675 23.564L34.5401 26.1847C34.5401 26.1983 34.5535 26.2256 34.5535 26.2529C34.5938 26.4031 34.6475 26.5396 34.7414 26.676C34.8354 26.7989 34.983 26.8808 35.1306 26.8671C35.2917 26.8535 35.4393 26.7443 35.5333 26.6078C35.6138 26.4986 35.6809 26.3758 35.7346 26.2393C35.9091 25.8298 36.0433 25.4067 36.1238 24.9699C36.2178 24.5331 36.2715 24.0964 36.2446 23.6459C36.2446 23.4548 36.2312 23.2365 36.1373 23.0727ZM29.9096 20.2336C30.4599 21.0526 30.6075 22.049 30.6075 23.0181C30.6075 23.2774 30.5941 23.5367 30.5673 23.7824C30.527 23.7142 30.4733 23.605 30.4196 23.5367C30.2854 23.3184 30.1512 23.1136 29.9902 22.9089C29.923 22.827 29.8559 22.7451 29.7888 22.6768L29.7217 22.5949L29.6815 22.6086C29.5204 22.6768 29.3728 22.7587 29.1714 22.9089C28.7822 23.2092 28.2051 23.8097 27.8024 24.5058L27.8293 24.2874C27.8829 23.8234 27.9501 23.3593 28.0977 22.8952C28.299 22.2674 28.5943 21.6941 28.9835 21.1618C29.2654 20.8069 29.5875 20.493 29.9096 20.2336ZM42.3918 21.0526C42.2173 20.9707 42.0428 21.2164 41.9623 21.3392C41.6133 21.8852 41.412 22.4585 41.2107 23.0727L42.6065 22.1582C42.6199 22.008 42.6199 21.8442 42.6065 21.6941C42.5797 21.5167 42.5662 21.1345 42.3918 21.0526ZM46.0022 19.9334C45.9351 19.9334 45.868 19.9743 45.8009 20.0426C45.5459 20.3019 45.2506 20.9434 45.1835 21.1072C45.0895 21.3119 45.0224 21.4894 44.9419 21.6941L46.1632 20.9843C46.1901 20.725 46.2169 20.4111 46.1901 20.1654C46.1632 20.0562 46.0961 19.947 46.0022 19.9334ZM44.2842 17.3264L44.0158 18.5002C43.2642 18.7049 42.5662 19.0871 41.8952 19.4829C41.6536 19.6194 41.412 19.7696 41.1838 19.9334L41.3314 19.1827C41.5999 18.9643 41.8683 18.7732 42.1502 18.5685C42.7005 18.1863 43.2776 17.8041 43.8681 17.5038C43.9889 17.4629 44.1634 17.381 44.2842 17.3264Z" fill="white"/>
</svg>
