<svg width="163" height="56" viewBox="0 0 163 56" fill="none" xmlns="http://www.w3.org/2000/svg">
<g clip-path="url(#clip0_2270_257)">
<g clip-path="url(#clip1_2270_257)">
<path d="M15.7246 22.3411L13.1907 24.7436C13.0249 24.8989 12.893 25.0854 12.8028 25.2918C12.7127 25.4983 12.6662 25.7204 12.6662 25.9449C12.6662 26.1694 12.7127 26.3916 12.8028 26.598C12.893 26.8045 13.0249 26.991 13.1907 27.1462C13.5316 27.4656 13.9855 27.644 14.4576 27.644C14.9298 27.644 15.3836 27.4656 15.7246 27.1462L18.2573 24.7436C18.4231 24.5884 18.555 24.4019 18.6452 24.1955C18.7353 23.989 18.7818 23.7669 18.7818 23.5424C18.7818 23.3179 18.7353 23.0957 18.6452 22.8893C18.555 22.6828 18.4231 22.4963 18.2573 22.3411C17.9164 22.022 17.4628 21.8439 16.991 21.8439C16.5191 21.8439 16.0655 22.022 15.7246 22.3411ZM10.6591 17.5383L8.12523 19.9408C7.95926 20.0961 7.82717 20.2827 7.73693 20.4892C7.64669 20.6958 7.60016 20.9181 7.60016 21.1427C7.60016 21.3673 7.64669 21.5896 7.73693 21.7962C7.82717 22.0028 7.95926 22.1893 8.12523 22.3446C8.46603 22.6643 8.91997 22.8428 9.39218 22.8428C9.8644 22.8428 10.3183 22.6643 10.6591 22.3446L13.1919 19.942C13.3576 19.7868 13.4896 19.6003 13.5797 19.3938C13.6698 19.1874 13.7163 18.9652 13.7163 18.7407C13.7163 18.5162 13.6698 18.2941 13.5797 18.0876C13.4896 17.8812 13.3576 17.6947 13.1919 17.5394C12.8511 17.2201 12.3974 17.0418 11.9255 17.0418C11.4536 17.0418 10.9999 17.2201 10.6591 17.5394V17.5383ZM5.59131 29.5511C5.42603 29.3955 5.29442 29.2089 5.20429 29.0026C5.11416 28.7962 5.06735 28.5742 5.06664 28.3498C5.06664 27.8985 5.25504 27.467 5.59131 27.1486C5.75825 26.9899 5.88942 26.8033 5.98004 26.5969C6.11706 26.2864 6.15325 25.9423 6.08373 25.611C6.0142 25.2798 5.84231 24.9774 5.59131 24.7448C5.25 24.4265 4.79653 24.249 4.32495 24.249C3.85337 24.249 3.39989 24.4265 3.05859 24.7448L1.79103 25.9473L0.52467 27.1474C0.188404 27.4669 0 27.8985 0 28.3498C0 28.8012 0.188404 29.2339 0.52467 29.5523L1.79103 30.7536L4.32376 33.1561L6.85767 35.5587L10.6579 39.1649C10.993 39.4833 11.4485 39.6617 11.9243 39.6617C12.3989 39.6617 12.8544 39.4833 13.1907 39.1649C13.5269 38.8453 13.7153 38.4138 13.7153 37.9636C13.7153 37.5123 13.5269 37.0796 13.1907 36.7612L10.6579 34.3586C10.4927 34.2029 10.3611 34.0164 10.2709 33.81C10.1808 33.6037 10.134 33.3817 10.1333 33.1573C10.1333 32.706 10.3217 32.2733 10.6579 31.956C10.8249 31.7974 10.9561 31.6108 11.0467 31.4044C11.1835 31.0939 11.2196 30.7497 11.1501 30.4185C11.0806 30.0873 10.9088 29.7849 10.6579 29.5523C10.3168 29.2337 9.86325 29.056 9.39159 29.056C8.91992 29.056 8.46639 29.2337 8.12523 29.5523C7.78479 29.8729 7.33026 30.0515 6.85767 30.0503C6.38308 30.0503 5.92758 29.8707 5.59131 29.5523V29.5511ZM14.457 33.1561L15.7246 34.3574C16.0597 34.677 16.5152 34.8566 16.991 34.8566C17.4655 34.8566 17.921 34.677 18.2573 34.3586L19.5237 33.1573L23.324 29.5535C23.6602 29.2339 23.8486 28.8012 23.8486 28.351C23.8486 27.8996 23.6602 27.4681 23.324 27.1497C22.9838 26.8294 22.5298 26.6508 22.0576 26.6517C21.5818 26.6517 21.1275 26.8302 20.79 27.1486L18.2573 29.5523C17.9172 29.8726 17.4631 30.0512 16.991 30.0503C16.5184 30.0511 16.064 29.8726 15.7234 29.5523C15.5566 29.3934 15.3598 29.2678 15.1439 29.1826C14.8164 29.0542 14.458 29.0207 14.1117 29.0863C13.7653 29.1519 13.4455 29.3137 13.1907 29.5523C13.0237 29.7097 12.8926 29.8975 12.8019 30.1028C12.6651 30.4133 12.629 30.7574 12.6985 31.0886C12.768 31.4198 12.9398 31.7222 13.1907 31.9549L14.457 33.1561Z" fill="white"/>
<path d="M10.656 24.7438C10.3152 24.4241 9.86127 24.2456 9.38905 24.2456C8.91684 24.2456 8.4629 24.4241 8.1221 24.7438C7.95631 24.899 7.82438 25.0855 7.73425 25.2919C7.64412 25.4984 7.59766 25.7206 7.59766 25.945C7.59766 26.1695 7.64412 26.3917 7.73425 26.5981C7.82438 26.8046 7.95631 26.9911 8.1221 27.1463C8.4629 27.466 8.91684 27.6445 9.38905 27.6445C9.86127 27.6445 10.3152 27.466 10.656 27.1463C10.8218 26.9911 10.9537 26.8046 11.0439 26.5981C11.134 26.3917 11.1805 26.1695 11.1805 25.945C11.1805 25.7206 11.134 25.4984 11.0439 25.2919C10.9537 25.0855 10.8218 24.899 10.656 24.7438ZM36.527 23.5425H40.2939V25.945C41.5829 23.7431 43.876 23.3827 45.9639 23.3617L45.5549 26.6063C42.9339 26.5853 40.2939 27.4274 40.2939 29.83V36.1163H36.5258L36.527 23.5425ZM46.4552 29.9898V29.7892C46.4552 25.8249 49.3206 23.2614 53.0672 23.2614C56.3834 23.2614 59.3311 25.1636 59.3311 29.6492V30.6102H50.0778C50.1803 32.6932 51.3275 33.8945 53.2723 33.8945C54.9095 33.8945 55.9326 33.1936 56.158 32.1322H59.3108C58.9018 34.8357 56.691 36.3566 53.1698 36.3566C49.2801 36.3566 46.4755 33.9738 46.4755 29.9699L46.4552 29.9898ZM55.8515 28.4876C55.7287 26.5865 54.7462 25.685 53.0469 25.685C51.4491 25.685 50.364 26.7265 50.0993 28.4876H55.8515ZM91.0807 29.9898V29.7892C91.0807 25.8249 93.9461 23.2614 97.6928 23.2614C101.008 23.2614 103.957 25.1636 103.957 29.6492V30.6102H94.7033C94.8059 32.6932 95.953 33.8945 97.8967 33.8945C99.5351 33.8945 100.558 33.1936 100.784 32.1322H103.936C103.526 34.8357 101.315 36.3566 97.7953 36.3566C93.9056 36.3566 91.101 33.9738 91.101 29.9699L91.0807 29.9898ZM100.477 28.4876C100.353 26.5865 99.3705 25.685 97.6725 25.685C96.0746 25.685 94.9895 26.7265 94.7248 28.4876H100.477ZM134.111 29.9898V29.7892C134.111 25.8249 136.976 23.2614 140.723 23.2614C144.039 23.2614 146.987 25.1636 146.987 29.6492V30.6102H137.733C137.836 32.6932 138.983 33.8945 140.927 33.8945C142.565 33.8945 143.588 33.1936 143.814 32.1322H146.966C146.556 34.8357 144.345 36.3566 140.825 36.3566C136.936 36.3566 134.131 33.9738 134.131 29.9699L134.111 29.9898ZM143.506 28.4876C143.383 26.5865 142.401 25.685 140.703 25.685C139.106 25.685 138.021 26.7265 137.755 28.4876H143.506ZM62.0748 26.022H60.3756V23.5401H62.0748V22.0974C62.0748 19.1747 63.7943 17.7122 66.6395 17.7122C67.3967 17.7122 67.8879 17.7938 68.3804 17.9338V20.5568C67.9938 20.4164 67.5836 20.3483 67.1713 20.3562C66.0659 20.3562 65.5949 21.0559 65.5949 22.0181V23.56H68.3792V26.043H65.5949V36.1338H62.0534V26.043L62.0748 26.022ZM70.8344 17.8533H74.376V36.1151H70.8344V17.8533ZM77.0995 31.6494V23.5401H80.641V31.1491C80.641 32.8507 81.3576 33.6717 82.872 33.6717C84.3864 33.6717 85.555 32.7504 85.555 30.9076V23.5413H89.0965V36.0941H85.555V34.1324C84.8992 35.413 83.5887 36.3741 81.4805 36.3741C78.9835 36.3741 77.1197 34.9325 77.1197 31.6494H77.0995ZM105.842 23.5425H109.404V25.545C110.038 24.3029 111.451 23.2626 113.58 23.2626C116.118 23.2626 117.899 24.7438 117.899 28.1074V36.0965H114.337V28.6089C114.337 26.9061 113.64 26.085 112.085 26.085C110.529 26.085 109.402 27.0064 109.402 28.8491V36.0965H105.842V23.5425ZM119.741 29.9898V29.7892C119.741 25.7246 122.709 23.2614 126.373 23.2614C129.341 23.2614 132.085 24.5233 132.412 28.1272H129.055C128.809 26.6658 127.909 25.9847 126.455 25.9847C124.613 25.9847 123.385 27.3259 123.385 29.7285V29.9291C123.385 32.453 124.531 33.7546 126.536 33.7546C127.97 33.7546 129.117 32.9335 129.28 31.331H132.494C132.289 34.3144 130.078 36.3776 126.353 36.3776C122.628 36.3776 119.741 34.0939 119.741 29.9898ZM148.582 30.0084V29.8078C148.582 25.6826 151.018 23.2602 154.233 23.2602C156.3 23.2602 157.569 24.1419 158.286 25.4225V17.8533H161.828V36.1151H158.286V34.0333C157.63 35.2941 156.054 36.3752 154.171 36.3752C151.06 36.3752 148.604 34.1931 148.604 30.0072H148.582V30.0084ZM158.389 29.8883V29.6877C158.389 27.1848 157.262 25.9229 155.317 25.9229C153.373 25.9229 152.226 27.2455 152.226 29.7483V29.9478C152.226 32.4506 153.454 33.6717 155.216 33.6717C157.078 33.6717 158.389 32.4506 158.389 29.9081V29.8883Z" fill="white"/>
</g>
</g>
<defs>
<clipPath id="clip0_2270_257">
<rect width="162.171" height="56" fill="white"/>
</clipPath>
<clipPath id="clip1_2270_257">
<rect width="162.171" height="23.3259" fill="white" transform="translate(0 16.337)"/>
</clipPath>
</defs>
</svg>
