<svg width="66" height="56" viewBox="0 0 66 56" fill="none" xmlns="http://www.w3.org/2000/svg">
<g clip-path="url(#clip0_2270_209)">
<g clip-path="url(#clip1_2270_209)">
<mask id="mask0_2270_209" style="mask-type:luminance" maskUnits="userSpaceOnUse" x="0" y="16" width="66" height="24">
<path d="M65.2122 16.8923H0V39.1075H65.2122V16.8923Z" fill="white"/>
</mask>
<g mask="url(#mask0_2270_209)">
<path d="M37.1637 31.0284C37.1637 29.4543 36.9536 28.3852 36.5636 27.8209C36.1734 27.2567 35.4536 26.9894 34.3735 26.9894C32.9632 26.9894 31.9132 27.4349 31.9132 28.0586V35.0676C32.6034 35.3349 33.3833 35.4536 34.2534 35.4536C36.5338 35.3943 37.0438 34.9488 37.1637 31.0284ZM40.3138 24.7916C41.304 25.9499 41.7841 27.9992 41.7841 30.9393C41.7841 33.9984 41.1841 36.107 40.0138 37.3246C38.8438 38.5126 36.9237 39.1066 34.2534 39.1066C31.4931 39.1066 29.1831 38.7503 27.293 38.0374V17.2481H31.9132V23.9304C33.0233 23.3661 34.3135 23.0691 35.7237 23.0691C37.8237 23.0691 39.3538 23.6334 40.3138 24.7916Z" fill="white"/>
<path d="M55.4618 27.287C53.8719 26.8415 52.3415 26.6336 50.9315 26.6336C49.3413 26.6336 48.7713 26.8415 48.7713 27.9405C48.7713 28.7423 49.1913 28.9798 51.5614 29.2472C55.2518 29.7223 56.7218 30.8805 56.7218 33.8803C56.7218 37.7115 54.1417 39.1072 49.8514 39.1072C47.7512 39.1072 45.9211 38.84 44.391 38.2757L45.2909 34.8305C46.7613 35.2464 48.2012 35.4543 49.6414 35.4543C51.5916 35.4543 52.2815 35.2166 52.2815 34.1178C52.2815 33.2565 51.7114 32.9596 49.2213 32.7219C45.7711 32.3952 44.3008 31.3557 44.3008 28.267C44.3008 24.436 46.8211 23.0698 51.1114 23.0698C53.0317 23.0698 54.7719 23.337 56.362 23.9013L55.4618 27.287Z" fill="white"/>
<path d="M64.9124 23.4855V38.6914H60.2922V23.4855H64.9124ZM62.6024 21.466C60.5623 21.466 59.9922 21.0503 59.9922 19.0603C59.9922 17.2487 60.5623 16.8923 62.6024 16.8923C64.6426 16.8923 65.2127 17.2487 65.2127 19.0603C65.2127 21.0503 64.6426 21.466 62.6024 21.466Z" fill="white"/>
<path d="M6.2645 32.5462C7.32522 32.4738 7.6406 31.7732 7.6272 31.4454C7.59767 30.7252 7.34385 30.3894 6.92341 29.7973C6.37323 29.0228 5.53559 28.0373 5.33833 26.2143C5.14235 24.4018 5.74084 22.6824 6.71401 21.5345C7.55518 20.5422 8.76182 19.9878 10.2034 19.8908C10.3341 19.882 10.4654 19.8776 10.5937 19.8776C11.9746 19.8778 13.1927 20.357 14.1165 21.3044C15.1725 22.3874 15.8963 24.0038 15.8356 25.7016C15.7647 27.6849 14.9987 28.7416 14.5511 29.4973C14.1992 30.0914 14.0386 30.341 14.116 31.029C14.1403 31.2464 14.4333 32.1246 15.3305 32.1246C15.3386 32.1246 15.3467 32.1245 15.3548 32.1244L21.6726 31.8317V17.2481H9.15527e-05V32.8343C4.89052 32.6086 5.99678 32.5575 6.2645 32.5462Z" fill="white"/>
<path d="M21.6726 38.7011V33.14L15.3994 33.4308C13.7589 33.4701 12.9073 32.0979 12.8033 31.1733C12.5453 28.8758 14.4007 28.8788 14.5158 25.6552C14.6017 23.2537 12.9778 21.0142 10.2929 21.1948C7.42848 21.3874 6.41169 23.8591 6.65146 26.0748C6.96321 28.9566 8.85319 29.1105 8.94678 31.3921C8.98713 32.3763 8.17814 33.7255 6.35517 33.8498C6.37109 33.8487 1.65794 34.0662 9.15527e-05 34.1427V38.7011H21.6726Z" fill="white"/>
</g>
</g>
</g>
<defs>
<clipPath id="clip0_2270_209">
<rect width="65.2122" height="56" fill="white"/>
</clipPath>
<clipPath id="clip1_2270_209">
<rect width="65.2122" height="22.2152" fill="white" transform="translate(0 16.8923)"/>
</clipPath>
</defs>
</svg>
