<svg width="157" height="56" viewBox="0 0 157 56" fill="none" xmlns="http://www.w3.org/2000/svg">
<g clip-path="url(#clip0_2270_300)">
<g clip-path="url(#clip1_2270_300)">
<path d="M11.7305 18.0292H15.8934V26.2212L23.7887 18.0292H28.9568L20.9193 26.2505L29.475 38.5833H24.5952L17.9914 28.9818L15.8953 31.1098V38.5833H11.7324V18.0292H11.7305Z" fill="white"/>
<path d="M30.6211 31.9708V18.0292H34.784V31.9708C34.784 34.0988 35.8457 35.5923 38.6313 35.5923C41.2728 35.5923 42.5079 34.0402 42.5079 31.9122V18.0292H46.6708V31.9708C46.6708 36.3694 43.9728 38.9269 38.719 38.9269C33.4652 38.9269 30.623 36.426 30.623 31.9708H30.6211Z" fill="white"/>
<path d="M49.6564 18.0292H59.0731C63.0354 18.0292 65.6769 20.329 65.6769 23.7495C65.6769 26.1645 64.5568 28.0036 61.9153 28.7221V28.808C63.8107 29.3546 64.7867 30.446 65.0438 32.9469C65.3302 35.85 65.2152 38.064 65.9341 38.3802V38.5813H61.9426C61.4264 38.3509 61.3679 36.0511 61.1965 33.8372C61.0251 31.5959 59.7608 30.3308 57.1777 30.3308H53.8193V38.5813H49.6564V18.0292ZM53.8193 27.1134H58.2413C60.5088 27.1134 61.6289 25.9342 61.6289 24.2962C61.6289 22.6582 60.5673 21.3931 58.3563 21.3931H53.8193V27.1134Z" fill="white"/>
<path d="M67.6875 35.4498L78.8847 21.5942V21.5083H68.4063V18.0292H83.8229V21.5083L72.9997 34.9617V35.0476H84.0236V38.5833H67.6875V35.4498Z" fill="white"/>
<path d="M86.4648 18.0292H95.6517C97.8627 18.0292 99.5555 18.5759 100.619 19.5247C101.739 20.5302 102.255 21.7679 102.255 23.3767C102.255 25.4754 100.964 26.8264 99.0393 27.4882V27.5741C101.307 28.236 102.857 30.1317 102.857 32.6619C102.857 34.5889 102.255 35.9106 101.05 36.9453C99.873 37.98 98.0633 38.5833 95.8816 38.5833H86.4648V18.0292ZM95.1355 26.309C96.9432 26.309 98.1783 25.4461 98.1783 23.8374C98.1783 22.3146 97.0582 21.4224 95.2212 21.4224H90.6278V26.309H95.1355ZM90.6278 35.1335H95.4218C97.4322 35.1335 98.638 34.0129 98.638 32.3456C98.638 30.3914 97.2023 29.384 95.3069 29.384H90.6278V35.1335Z" fill="white"/>
<path d="M105.328 18.0292H109.491V38.5833H105.328V18.0292Z" fill="white"/>
<path d="M112.676 18.0292H116.839V35.1043H126.485V38.5833H112.676V18.0292Z" fill="white"/>
<path d="M128.726 18.0292H136.737C142.22 18.0292 145.752 22.4571 145.752 28.521C145.752 31.8556 144.632 34.788 142.479 36.5978C140.958 37.8629 138.977 38.5813 136.394 38.5813H128.728V18.0292H128.726ZM136.105 34.989C140.009 34.989 141.531 32.6033 141.531 28.521C141.531 24.4387 139.75 21.5922 136.22 21.5922H132.889V34.989H136.105Z" fill="white"/>
<path d="M10.9401 9.11713V12.3834H4.12785V43.603H10.9401V46.8829H0V9.11713H10.9401Z" fill="white"/>
<path d="M145.121 46.8829V43.6167H151.935V12.397H145.121V9.11713H156.061V46.8829H145.121Z" fill="white"/>
</g>
</g>
<defs>
<clipPath id="clip0_2270_300">
<rect width="156.061" height="56" fill="white"/>
</clipPath>
<clipPath id="clip1_2270_300">
<rect width="156.061" height="37.7658" fill="white" transform="translate(0 9.11713)"/>
</clipPath>
</defs>
</svg>
