<svg width="128" height="56" viewBox="0 0 128 56" fill="none" xmlns="http://www.w3.org/2000/svg">
<g clip-path="url(#clip0_2270_235)">
<path d="M15.6045 17.2726V19.1045H11.8178V36.6138H15.6045V38.4533H9.52344V17.2726H15.6045Z" fill="white"/>
<path d="M111.445 38.4533V36.6215H115.233V19.1122H111.445V17.2726H117.526V38.4533H111.445Z" fill="white"/>
<path d="M23.8964 32.8954C23.0424 33.6849 21.9511 34.0791 20.6213 34.0791C18.9761 34.0791 17.6821 33.5458 16.7403 32.4794C15.7985 31.4074 15.3281 29.9391 15.3281 28.0722C15.3281 26.0542 15.8635 24.4994 16.9343 23.4066C17.8652 22.4551 19.0498 21.9799 20.4891 21.9799C22.4138 21.9799 23.8206 22.6183 24.7114 23.8928C25.2024 24.6089 25.4668 25.3272 25.5026 26.0487H23.1118C22.9568 25.4947 22.7574 25.0764 22.5146 24.7939C22.08 24.2924 21.4363 24.0417 20.5823 24.0417C19.7282 24.0417 19.027 24.3965 18.5253 25.1038C18.0235 25.8122 17.772 26.8152 17.772 28.1105C17.772 29.4059 18.0376 30.3782 18.5675 31.0231C19.0975 31.6691 19.7716 31.991 20.5888 31.991C21.4059 31.991 22.0659 31.714 22.506 31.16C22.7487 30.8621 22.9514 30.4154 23.1118 29.8186H25.4787C25.2717 31.0789 24.7439 32.1027 23.8954 32.8922L23.8964 32.8954Z" fill="white"/>
<path d="M31.7684 34.0792C30.133 34.0792 28.8834 33.6303 28.0196 32.7303C26.86 31.6277 26.2812 30.0389 26.2812 27.9629C26.2812 25.8869 26.8611 24.2565 28.0196 23.1955C28.8834 22.2965 30.133 21.8465 31.7684 21.8465C33.4038 21.8465 34.6523 22.2965 35.5172 23.1955C36.6714 24.2565 37.2479 25.8452 37.2479 27.9629C37.2479 30.0805 36.6714 31.6277 35.5172 32.7303C34.6534 33.6292 33.4038 34.0792 31.7684 34.0792ZM34.027 30.974C34.5808 30.2677 34.8571 29.2648 34.8571 27.9629C34.8571 26.661 34.5786 25.6646 34.0226 24.9561C33.4667 24.2477 32.7145 23.894 31.7684 23.894C30.8223 23.894 30.0658 24.2466 29.5022 24.9529C28.9387 25.6591 28.6558 26.6621 28.6558 27.964C28.6558 29.2659 28.9376 30.2688 29.5022 30.9751C30.0658 31.6813 30.8212 32.0339 31.7684 32.0339C32.7156 32.0339 33.4677 31.6813 34.027 30.9751V30.974Z" fill="white"/>
<path d="M38.2773 22.1996H40.6681V31.6797H46.3341V33.7579H38.2784V22.1996H38.2773Z" fill="white"/>
<path d="M47.7891 22.1996H50.1799V31.6797H55.8458V33.7579H47.7901V22.1996H47.7891Z" fill="white"/>
<path d="M65.2592 28.9086H59.7027V31.8803H66.0363V33.9585H57.3672V22.4002H65.7567V24.4467H59.7027V26.9004H65.2592V28.9075V28.9086Z" fill="white"/>
<path d="M75.5722 32.8954C74.7182 33.6849 73.6268 34.0791 72.2971 34.0791C70.6519 34.0791 69.3579 33.5458 68.4161 32.4794C67.4743 31.4074 67.0039 29.9391 67.0039 28.0722C67.0039 26.0542 67.5393 24.4994 68.6101 23.4066C69.541 22.4551 70.7256 21.9799 72.1648 21.9799C74.0896 21.9799 75.4964 22.6183 76.3872 23.8928C76.8782 24.6089 77.1426 25.3272 77.1784 26.0487H74.7876C74.6326 25.4947 74.4332 25.0764 74.1904 24.7939C73.7558 24.2924 73.1121 24.0417 72.258 24.0417C71.404 24.0417 70.7028 24.3965 70.201 25.1038C69.6992 25.8122 69.4478 26.8152 69.4478 28.1105C69.4478 29.4059 69.7133 30.3782 70.2433 31.0231C70.7733 31.6691 71.4474 31.991 72.2645 31.991C73.0817 31.991 73.7417 31.714 74.1817 31.16C74.4245 30.8621 74.6272 30.4154 74.7876 29.8186H77.1545C76.9475 31.0789 76.4197 32.1027 75.5711 32.8922L75.5722 32.8954Z" fill="white"/>
<path d="M87.2936 22.1996V24.2461H83.8711V33.7568H81.4651V24.2461H78.0273V22.1996H87.2936Z" fill="white"/>
<path d="M88.3047 22.1996H90.6792V33.7579H88.3047V22.1996Z" fill="white"/>
<path d="M91.6641 22.1996H94.2174L96.7014 30.9735L99.2082 22.1996H101.692L97.7885 33.7579H95.5299L91.6651 22.1996H91.6641Z" fill="white"/>
<path d="M110.478 28.708H104.921V31.6797H111.255V33.7579H102.586V22.1996H110.975V24.2461H104.921V26.6999H110.478V28.7069V28.708Z" fill="white"/>
</g>
<defs>
<clipPath id="clip0_2270_235">
<rect width="127.182" height="56" fill="white"/>
</clipPath>
</defs>
</svg>
