<svg width="132" height="56" viewBox="0 0 132 56" fill="none" xmlns="http://www.w3.org/2000/svg">
<g clip-path="url(#clip0_2270_163)">
<g clip-path="url(#clip1_2270_163)">
<path d="M55.8372 23.1564H67.5284C67.724 23.1564 67.9117 23.0778 68.05 22.9379C68.1883 22.7979 68.266 22.6081 68.266 22.4101V22.0818C68.266 21.8838 68.1883 21.694 68.05 21.554C67.9117 21.4141 67.724 21.3354 67.5284 21.3354H55.8372C55.6416 21.3354 55.454 21.4141 55.3157 21.554C55.1773 21.694 55.0996 21.8838 55.0996 22.0818V22.3728C55.0996 22.5708 55.1773 22.7606 55.3157 22.9005C55.454 23.0405 55.6416 23.1191 55.8372 23.1191" fill="white"/>
<path d="M52.9163 27.2238V33.7988C52.9362 33.915 52.9286 34.0343 52.8941 34.147C52.8596 34.2596 52.7992 34.3624 52.7179 34.4468C52.6365 34.5313 52.5366 34.5951 52.4262 34.6329C52.3158 34.6708 52.1981 34.6816 52.0828 34.6645C51.7519 34.6811 51.4202 34.6585 51.0944 34.5974C50.9407 34.5354 50.8121 34.423 50.7291 34.2782C50.6462 34.1334 50.6138 33.9645 50.6371 33.7988V27.2014C50.6371 26.7387 50.2683 26.4029 49.479 26.276C48.9173 26.2287 48.3533 26.2137 47.7899 26.2312H44.1018C43.5237 26.2136 42.945 26.2286 42.3685 26.276C41.5792 26.4253 41.1883 26.7387 41.1883 27.2238V33.7988C41.2091 33.9172 41.2014 34.0389 41.1658 34.1536C41.1302 34.2682 41.0677 34.3725 40.9837 34.4575C40.8997 34.5425 40.7966 34.6058 40.6832 34.6418C40.5699 34.6778 40.4496 34.6856 40.3326 34.6645C40.0091 34.6803 39.6848 34.6577 39.3664 34.5974C39.2127 34.5354 39.084 34.423 39.0011 34.2782C38.9181 34.1334 38.8857 33.9645 38.9091 33.7988V27.2462C38.9091 25.276 40.6351 24.2983 44.0723 24.2983H47.7604C51.1977 24.3132 52.9163 25.2884 52.9163 27.2238ZM37.2715 24.3207C33.377 24.3207 31.4518 25.3879 31.4518 27.5373L31.4075 33.8212C31.3867 33.9396 31.3944 34.0613 31.43 34.1759C31.4656 34.2906 31.5281 34.3949 31.6121 34.4799C31.6961 34.5649 31.7992 34.6281 31.9126 34.6642C32.0259 34.7002 32.1462 34.708 32.2632 34.6869C32.5916 34.7041 32.921 34.6815 33.2442 34.6198C33.554 34.5078 33.7089 34.269 33.7089 33.8212V27.5149C33.7089 26.6268 34.5793 26.2088 36.3127 26.2088H37.2715C37.3847 26.225 37.5001 26.2144 37.6085 26.1777C37.7169 26.141 37.8154 26.0794 37.8963 25.9976C37.9771 25.9158 38.038 25.8161 38.0743 25.7064C38.1105 25.5968 38.121 25.48 38.1051 25.3655C38.1051 24.6565 37.8248 24.3207 37.2715 24.3207ZM29.829 27.597V31.433C29.8348 31.9918 29.672 32.5392 29.3623 33.0019C29.0526 33.4646 28.6107 33.8208 28.0957 34.0227C27.0667 34.4678 25.9538 34.6792 24.8354 34.6421H21.0662C19.9147 34.6743 18.7692 34.4634 17.7027 34.0227C17.1595 33.8466 16.6852 33.5014 16.3474 33.0363C16.0096 32.5713 15.8257 32.0101 15.8218 31.433V27.6194C15.8218 26.4701 16.4561 25.6118 17.7027 24.9849C18.7607 24.5119 19.9101 24.2849 21.0662 24.3207H24.8354C28.162 24.3207 29.829 25.3879 29.829 27.597ZM27.5498 27.4477C27.5498 26.6268 26.6057 26.2312 24.769 26.2312H21.081C20.4602 26.2135 19.8405 26.2941 19.2443 26.4701C18.5067 26.7387 18.1084 27.1119 18.1084 27.6194V31.433C18.1084 31.9405 18.4993 32.2987 19.2886 32.5152C19.8796 32.6777 20.4907 32.7531 21.1031 32.7391H24.7912C25.3519 32.7611 25.9125 32.6905 26.4508 32.5301C27.1884 32.2913 27.5498 31.933 27.5498 31.4703V27.4477ZM13.8155 32.7391H5.34031C3.28237 32.7391 2.25709 32.3137 2.25709 31.433V27.3806C2.25709 26.6342 3.1496 26.2312 4.97151 26.2312H13.7491C14.3171 26.2312 14.6269 25.8954 14.6269 25.2536C14.6269 24.6117 14.3171 24.3207 13.7491 24.3207H4.79448C1.60062 24.3207 1.32323e-07 25.3431 1.32323e-07 27.4477V31.5226C-0.0344285 32.1065 0.12258 32.6856 0.446664 33.1701C0.770749 33.6545 1.24379 34.0172 1.7924 34.2018C2.91775 34.5585 4.09571 34.7151 5.27393 34.6645H13.6163C14.3171 34.6645 14.6711 34.3735 14.6711 33.7988C14.6711 33.0898 14.3834 32.7391 13.8155 32.7391ZM115.702 24.3207C111.8 24.3207 109.904 25.3655 109.904 27.5149L109.86 33.7988C109.839 33.9172 109.847 34.0389 109.882 34.1536C109.918 34.2682 109.981 34.3725 110.065 34.4575C110.149 34.5425 110.252 34.6058 110.365 34.6418C110.478 34.6778 110.599 34.6856 110.716 34.6645C111.044 34.6817 111.373 34.6591 111.697 34.5974C112.006 34.4854 112.161 34.2466 112.161 33.7988V27.5149C112.161 26.6268 113.039 26.2088 114.765 26.2088H115.731C115.843 26.2212 115.956 26.2078 116.061 26.1694C116.167 26.1311 116.262 26.0689 116.341 25.9876C116.419 25.9063 116.478 25.808 116.513 25.7002C116.548 25.5924 116.558 25.4779 116.543 25.3655C116.543 24.6565 116.248 24.3207 115.702 24.3207ZM131.723 22.3728V31.4778C131.723 32.5823 130.985 33.4257 129.643 34.0003C128.552 34.451 127.383 34.6768 126.205 34.6645H122.746C119.22 34.6645 117.425 33.6894 117.361 31.739C117.317 30.6345 117.361 29.2613 117.361 27.597C117.45 25.4551 119.22 24.3879 122.702 24.3879H129.444V22.3504C129.428 22.2343 129.44 22.1161 129.478 22.0054C129.516 21.8947 129.579 21.7946 129.662 21.7132C129.745 21.6318 129.847 21.5714 129.957 21.5369C130.068 21.5024 130.185 21.4947 130.299 21.5146C130.633 21.4964 130.967 21.519 131.295 21.5817C131.568 21.6638 131.723 21.9325 131.723 22.3504V22.3728ZM129.466 26.3133H122.68C120.644 26.3133 119.641 26.7611 119.641 27.6642V31.3435C119.642 31.6634 119.757 31.9722 119.966 32.2124C120.175 32.4526 120.463 32.6079 120.777 32.6495C121.42 32.7522 122.073 32.7897 122.724 32.7614H125.969C128.286 32.7614 129.466 32.3361 129.466 31.4554V26.3133ZM108.429 28.0522V31.5524C108.429 33.6346 106.873 34.672 103.812 34.672H98.2942C97.2327 34.6856 96.1825 34.4507 95.2258 33.9854C94.0677 33.4331 93.4776 32.657 93.4776 31.6569V30.9106C93.4718 30.3774 93.6298 29.8555 93.9297 29.417C94.2296 28.9785 94.6567 28.6451 95.152 28.4627C96.1138 28.0172 97.1629 27.7977 98.2205 27.8209H106.187C106.187 26.9552 106.113 26.2238 103.192 26.2238H94.9455C94.8314 26.2392 94.7154 26.2275 94.6066 26.1894C94.4979 26.1514 94.3994 26.0882 94.3192 26.0048C94.2389 25.9214 94.179 25.8201 94.1443 25.7091C94.1096 25.5981 94.1011 25.4805 94.1193 25.3655V25.1416C94.1073 25.0295 94.1205 24.9162 94.158 24.81C94.1955 24.7038 94.2563 24.6076 94.3358 24.5286C94.4153 24.4496 94.5114 24.3899 94.617 24.3538C94.7226 24.3178 94.8349 24.3065 94.9455 24.3207H103.959C106.828 24.3207 108.429 25.8133 108.429 28.0522ZM106.179 30.933C106.179 30.7763 106.179 29.7538 106.179 29.7538H98.1393C97.6172 29.7245 97.0938 29.7825 96.5903 29.9255C95.9339 30.1494 95.7052 30.4554 95.7052 30.8807V31.6271C95.7052 32.0077 95.9781 32.4107 96.6567 32.6346C97.1651 32.7465 97.6871 32.7817 98.2057 32.7391H103.812C104.493 32.8133 105.181 32.6726 105.781 32.3361C105.934 32.1382 106.045 31.9115 106.11 31.6693C106.175 31.427 106.191 31.1741 106.157 30.9255L106.179 30.933ZM91.6631 32.7465H83.1658C81.1078 32.7465 80.0826 32.3211 80.0826 31.4405V27.3806C80.0826 26.6342 80.9751 26.2312 82.797 26.2312H91.5746C92.1425 26.2312 92.4523 25.8954 92.4523 25.2536C92.4523 24.6117 92.1425 24.3207 91.5746 24.3207H82.6126C79.4187 24.3207 77.8181 25.3655 77.8181 27.4701V31.545C77.7837 32.1289 77.9407 32.708 78.2648 33.1925C78.5888 33.6769 79.0619 34.0396 79.6105 34.2242C80.7358 34.5809 81.9138 34.7375 83.092 34.6869H91.4639C92.2015 34.6869 92.5187 34.3959 92.5187 33.8212C92.4966 33.0898 92.2015 32.7391 91.6409 32.7391L91.6631 32.7465ZM68.7233 27.1567V29.6568C68.7233 30.2837 68.5242 30.5897 68.1111 30.5897H56.8773C56.8109 32.0301 57.9542 32.7614 60.3367 32.7614H67.2702C67.8234 32.7614 68.1037 33.1122 68.1037 33.8212C68.1037 34.3959 67.8308 34.6198 67.285 34.6198C65.8098 34.6198 59.0459 34.6645 58.5664 34.6198C57.5807 34.6036 56.6214 34.2948 55.8077 33.7317C55.4322 33.4697 55.1248 33.1198 54.9117 32.7118C54.6985 32.3038 54.5858 31.8497 54.5833 31.3882V27.5821C54.5902 26.9882 54.7821 26.4116 55.1317 25.9346C55.4814 25.4575 55.9709 25.1043 56.5306 24.9252C57.6225 24.4847 58.7931 24.2788 59.9679 24.3207H64.1723C65.188 24.2886 66.1974 24.4929 67.1227 24.9177C67.5842 25.0799 67.9853 25.3816 68.2716 25.7821C68.5579 26.1826 68.7156 26.6625 68.7233 27.1567ZM66.5105 28.6493V27.3059C66.5326 26.5596 65.0058 26.1865 61.9594 26.1865H61.4357C59.3409 26.1865 57.9837 26.3656 57.3198 26.7238C57.0174 26.888 56.8404 27.0895 56.8404 27.3283V28.6194H66.54L66.5105 28.6493ZM76.0847 24.3207C72.1827 24.3207 70.2576 25.3879 70.2576 27.5373L70.2133 33.8212C70.1925 33.9396 70.2002 34.0613 70.2358 34.1759C70.2714 34.2906 70.3339 34.3949 70.4179 34.4799C70.5019 34.5649 70.605 34.6281 70.7183 34.6642C70.8317 34.7002 70.952 34.708 71.0689 34.6869C71.3999 34.7035 71.7316 34.6809 72.0573 34.6198C72.3598 34.5078 72.5147 34.269 72.5147 33.8212V27.5149C72.5147 26.6268 73.3924 26.2088 75.1184 26.2088H76.0847C76.2 26.2259 76.3177 26.2151 76.4281 26.1772C76.5385 26.1394 76.6384 26.0756 76.7198 25.9911C76.8011 25.9067 76.8615 25.8039 76.896 25.6913C76.9305 25.5786 76.9381 25.4593 76.9182 25.3431C76.9182 24.6565 76.6305 24.3207 76.0847 24.3207Z" fill="white"/>
</g>
</g>
<defs>
<clipPath id="clip0_2270_163">
<rect width="131.723" height="56" fill="white"/>
</clipPath>
<clipPath id="clip1_2270_163">
<rect width="131.723" height="13.3291" fill="white" transform="translate(0 21.3354)"/>
</clipPath>
</defs>
</svg>
