<svg width="83" height="56" viewBox="0 0 83 56" fill="none" xmlns="http://www.w3.org/2000/svg">
<g clip-path="url(#clip0_2270_156)">
<g clip-path="url(#clip1_2270_156)">
<path d="M0.821379 18.0788C5.36519 13.5349 12.7322 13.5349 17.276 18.0788C20.8894 21.6923 21.6293 27.0912 19.4955 31.4358C18.9546 32.5371 17.5483 32.7173 16.467 32.1373C15.5139 31.6262 14.5115 31.2156 13.4751 30.9113C13.3642 30.8787 13.3226 30.7434 13.4043 30.6616L13.4757 30.5891C15.8096 28.1783 15.7858 24.3319 13.4043 21.9504C10.9987 19.5449 7.09858 19.5449 4.69305 21.9504L4.65942 21.9835C3.58787 23.0195 1.87938 23.0084 0.821379 21.9504C-0.247751 20.8813 -0.247751 19.1479 0.821379 18.0788Z" fill="white"/>
<path d="M0.821378 30.6632C1.89051 29.594 3.62391 29.594 4.69305 30.6632L4.75103 30.7204C5.89353 31.8337 7.38873 32.4428 8.95318 32.4666C8.97912 32.4658 9.00506 32.4654 9.0312 32.4654C12.6001 32.4654 16.0403 33.8604 18.615 36.4351C19.6841 37.5042 19.6841 39.2377 18.615 40.3068C17.5569 41.3648 15.8484 41.3758 14.7769 40.3399L14.7433 40.3068C13.2301 38.7936 11.2261 37.9668 9.13114 37.9414L9.09583 37.9423L9.04869 37.9427C5.98527 37.9427 3.03139 36.7449 0.821378 34.5348C-0.247751 33.4657 -0.247751 31.7323 0.821378 30.6632Z" fill="white"/>
<path d="M38.4393 33.1177C36.5217 33.1177 34.9378 32.4805 33.6877 31.2061C32.4375 29.9317 31.8125 28.36 31.8125 26.4909C31.8125 24.6097 32.4375 23.0379 33.6877 21.7756C34.9378 20.5012 36.5217 19.864 38.4393 19.864C39.5923 19.864 40.6544 20.1371 41.6253 20.6833C42.6084 21.2173 43.373 21.9455 43.9192 22.868L41.7528 24.1242C41.4372 23.5537 40.9881 23.1107 40.4055 22.7951C39.823 22.4674 39.1676 22.3036 38.4393 22.3036C37.2014 22.3036 36.2 22.692 35.4354 23.4688C34.6829 24.2455 34.3067 25.2529 34.3067 26.4909C34.3067 27.7167 34.6829 28.718 35.4354 29.4948C36.2 30.2716 37.2014 30.66 38.4393 30.66C39.1676 30.66 39.823 30.5022 40.4055 30.1866C41.0003 29.8589 41.4493 29.4159 41.7528 28.8576L43.9192 30.1138C43.373 31.0362 42.6145 31.7705 41.6435 32.3167C40.6726 32.8507 39.6045 33.1177 38.4393 33.1177ZM45.4956 32.8628V19.5728H47.8441V32.8628H45.4956ZM56.9118 23.76H59.2603V32.8628H56.9118V31.7887C56.2078 32.6747 55.2186 33.1177 53.9443 33.1177C52.7305 33.1177 51.6868 32.6565 50.8129 31.7341C49.9511 30.7996 49.5203 29.6587 49.5203 28.3114C49.5203 26.9642 49.9511 25.8294 50.8129 24.907C51.6868 23.9725 52.7305 23.5052 53.9443 23.5052C55.2186 23.5052 56.2078 23.9481 56.9118 24.8342V23.76ZM52.5788 30.1684C53.0522 30.6418 53.653 30.8784 54.3812 30.8784C55.1094 30.8784 55.7102 30.6418 56.1835 30.1684C56.669 29.6829 56.9118 29.0639 56.9118 28.3114C56.9118 27.559 56.669 26.946 56.1835 26.4727C55.7102 25.9872 55.1094 25.7444 54.3812 25.7444C53.653 25.7444 53.0522 25.9872 52.5788 26.4727C52.1055 26.946 51.8688 27.559 51.8688 28.3114C51.8688 29.0639 52.1055 29.6829 52.5788 30.1684ZM66.4512 23.5052C67.446 23.5052 68.2653 23.8389 68.909 24.5065C69.5644 25.174 69.8921 26.0964 69.8921 27.2737V32.8628H67.5436V27.565C67.5436 26.9582 67.3797 26.4969 67.052 26.1814C66.7243 25.8537 66.2874 25.6898 65.7412 25.6898C65.1339 25.6898 64.6487 25.8779 64.2846 26.2542C63.9205 26.6305 63.7384 27.1949 63.7384 27.9473V32.8628H61.3899V23.76H63.7384V24.7796C64.3089 23.9299 65.2133 23.5052 66.4512 23.5052ZM78.7972 23.76H81.1457V36.504H78.7972V31.7887C78.1054 32.6747 77.1223 33.1177 75.8479 33.1177C74.6223 33.1177 73.5722 32.6565 72.6984 31.7341C71.8368 30.7996 71.4058 29.6587 71.4058 28.3114C71.4058 26.9642 71.8368 25.8294 72.6984 24.907C73.5722 23.9725 74.6223 23.5052 75.8479 23.5052C77.1223 23.5052 78.1054 23.9481 78.7972 24.8342V23.76ZM74.4643 30.1684C74.95 30.6418 75.5566 30.8784 76.2849 30.8784C77.0131 30.8784 77.6139 30.6418 78.0872 30.1684C78.5606 29.6829 78.7972 29.0639 78.7972 28.3114C78.7972 27.559 78.5606 26.946 78.0872 26.4727C77.6139 25.9872 77.0131 25.7444 76.2849 25.7444C75.5566 25.7444 74.95 25.9872 74.4643 26.4727C73.991 26.946 73.7543 27.559 73.7543 28.3114C73.7543 29.0639 73.991 29.6829 74.4643 30.1684Z" fill="white"/>
</g>
</g>
<defs>
<clipPath id="clip0_2270_156">
<rect width="82.5754" height="56" fill="white"/>
</clipPath>
<clipPath id="clip1_2270_156">
<rect width="82.5754" height="26.6582" fill="white" transform="translate(0 14.6709)"/>
</clipPath>
</defs>
</svg>
